<?xml version="1.0" encoding="UTF-8"?>
<!DOCTYPE svg PUBLIC "-//W3C//DTD SVG 1.1//EN" "http://www.w3.org/Graphics/SVG/1.1/DTD/svg11.dtd">
<!-- Creator: CorelDRAW X7 -->
<svg xmlns="http://www.w3.org/2000/svg" xml:space="preserve" width="11.811in" height="11.811in" version="1.1" style="shape-rendering:geometricPrecision; text-rendering:geometricPrecision; image-rendering:optimizeQuality; fill-rule:evenodd; clip-rule:evenodd"
viewBox="0 0 11811 11811"
 xmlns:xlink="http://www.w3.org/1999/xlink">
 <defs>
  <style type="text/css">
   <![CDATA[
    .fil0 {fill:none}
    .fil1 {fill:black}
    .fil3 {fill:#C40000}
    .fil2 {fill:red}
   ]]>
  </style>
 </defs>
 <g id="Layer_x0020_1">
  <metadata id="CorelCorpID_0Corel-Layer"/>
  <rect class="fil0" width="11811" height="11811"/>
  <g id="_568736408">
   <path class="fil1" d="M7503 3711c-611,783 -990,1742 -1063,2743l-8 102c353,-305 791,-516 1277,-593 -30,-90 -57,-181 -82,-273 -168,-634 -211,-1316 -124,-1979zm-4642 4246l-260 90c-350,121 -558,352 -569,730 -13,409 353,772 761,767 410,-6 769,-346 756,-764 -10,-334 -191,-541 -473,-702l-215 -121zm2780 1217c-339,1128 -1398,1941 -2632,1922 -1478,-22 -2702,-1261 -2653,-2748 37,-1127 747,-2196 1852,-2517l1046 -304c-427,-115 -1157,-147 -1627,8 534,-926 1543,-1629 2900,-1583 151,5 302,21 451,49 1287,-2338 3321,-3054 5526,-3287 -940,1070 -1782,2607 -850,4365 851,-17 1410,-778 1641,-1435 213,1370 455,2656 -990,3531 243,400 375,855 367,1339 -22,1411 -1120,2516 -2532,2541 -1189,21 -2197,-783 -2499,-1881zm2735 -1902l-284 -51c-497,-90 -934,271 -933,777 0,441 363,776 799,770 417,-5 794,-349 763,-779 -23,-306 -177,-479 -345,-717z"/>
   <path class="fil2" d="M4261 5662l-1939 563c-887,258 -1522,1134 -1555,2137 -42,1250 990,2304 2248,2324 1256,19 2311,-982 2329,-2256 6,-449 -124,-918 -378,-1293l-1688 584c424,240 667,580 681,1046 20,651 -523,1178 -1160,1187 -636,9 -1197,-540 -1178,-1190 17,-550 335,-929 845,-1105l2951 -1022c-45,-637 -414,-1220 -1111,-1454 821,47 1445,561 1724,1241 118,-1619 975,-3139 2316,-4074 -494,947 -609,2155 -322,3234 136,511 369,989 668,1423 240,346 408,534 438,952 51,686 -532,1213 -1168,1220 -665,8 -1214,-512 -1214,-1181 0,-764 671,-1316 1417,-1181 -84,-151 -164,-306 -238,-467 -1135,99 -1998,1054 -1967,2197 33,1196 1017,2118 2173,2098 1178,-21 2109,-936 2129,-2138 9,-564 -210,-1076 -587,-1490 974,-333 1529,-1279 1373,-2286 -351,513 -962,832 -1641,744 -739,-1207 -801,-2878 185,-4215 -1905,272 -3536,1439 -4398,3216l0 0c-212,-65 -439,-105 -681,-113 -678,-24 -1307,237 -1795,701 638,-34 1169,214 1543,598z"/>
   <path class="fil3" d="M8346 2350c-494,947 -609,2155 -322,3234 136,511 369,989 668,1423 15,22 30,43 44,63l0 0c507,519 658,1089 543,1581 -194,825 -1032,1275 -1789,1210 -882,-77 -1655,-852 -1180,-2549 -232,353 -362,780 -350,1235 33,1196 1017,2118 2173,2098 1178,-21 2109,-936 2129,-2138 9,-564 -210,-1076 -587,-1490 805,-275 1324,-968 1392,-1769l-19 -517c-159,1199 -1113,1961 -2054,1925 -928,-1305 -1104,-2719 -648,-4306z"/>
   <path class="fil3" d="M4306 5183c821,47 1445,561 1724,1241 100,-1371 730,-2672 1736,-3606l0 0c-987,697 -1549,1542 -1764,2509 -603,-267 -1161,-273 -1696,-144z"/>
   <path class="fil3" d="M2718 5064c638,-34 1169,214 1543,598 -248,-564 -753,-853 -1543,-598z"/>
   <path class="fil3" d="M3278 7721c424,240 667,580 681,1046 20,651 -523,1178 -1160,1187 -636,9 -1197,-540 -1178,-1190 17,-550 335,-929 845,-1105l2951 -1022c-248,-109 -495,-219 -743,-328l-1827 539c-2057,606 -2096,3238 -6,3359 1269,-55 1920,-971 1645,-2145l480 -925 -1688 584z"/>
   <path class="fil3" d="M4722 8124c87,-268 174,-536 261,-804 -133,258 -266,516 -399,775 225,1332 -560,2095 -1703,2180 1260,8 1996,-770 1841,-2151z"/>
   <polygon class="fil3" points="4678,6095 5229,6465 4678,6211 2867,6718 "/>
   <path class="fil3" d="M3144 4910c522,-64 862,195 1123,594 -252,-494 -537,-731 -1123,-594z"/>
   <path class="fil3" d="M5803 4950c-367,-45 -729,-10 -1087,80 411,-44 802,-18 1174,83 203,-633 517,-1194 971,-1663 -451,393 -829,866 -1058,1500z"/>
   <path class="fil3" d="M9143 6391c-723,-922 -883,-1959 -949,-2972 -85,1163 259,2183 869,3115 696,-40 1365,-486 1652,-1058 -345,467 -987,927 -1572,915z"/>
   <path class="fil3" d="M6229 8353c421,1434 1648,1655 2659,811 -906,1015 -2493,728 -2659,-811z"/>
  </g>
 </g>
</svg>
