<?xml version="1.0" encoding="UTF-8"?>
<!DOCTYPE svg PUBLIC "-//W3C//DTD SVG 1.1//EN" "http://www.w3.org/Graphics/SVG/1.1/DTD/svg11.dtd">
<!-- Creator: CorelDRAW X7 -->
<svg xmlns="http://www.w3.org/2000/svg" xml:space="preserve" width="11.811in" height="11.811in" version="1.1" style="shape-rendering:geometricPrecision; text-rendering:geometricPrecision; image-rendering:optimizeQuality; fill-rule:evenodd; clip-rule:evenodd"
viewBox="0 0 11811 11811"
 xmlns:xlink="http://www.w3.org/1999/xlink">
 <defs>
  <style type="text/css">
   <![CDATA[
    .fil0 {fill:black}
   ]]>
  </style>
 </defs>
 <g id="Layer_x0020_1">
  <metadata id="CorelCorpID_0Corel-Layer"/>
  <path class="fil0" d="M7518 3690c-617,791 -999,1758 -1073,2770l-8 102c356,-307 798,-520 1289,-598 -30,-91 -58,-183 -83,-276 -169,-640 -213,-1329 -125,-1998zm-1286 4686c425,1448 1664,1671 2684,819 -914,1025 -2517,735 -2684,-819zm2942 -1980c-730,-931 -892,-1978 -958,-3001 -86,1174 261,2205 877,3145 703,-41 1378,-491 1668,-1068 -349,471 -997,936 -1587,924zm-3372 -1455c-371,-46 -736,-10 -1097,81 414,-45 810,-19 1185,83 205,-639 522,-1205 980,-1678 -455,396 -837,874 -1068,1514zm-2684 -40c526,-65 870,196 1133,600 -254,-500 -541,-739 -1133,-600zm1548 1196l556 373 -556 -256 -1828 512 1828 -629zm44 2048c88,-271 176,-541 264,-812 -134,261 -268,522 -403,783 227,1345 -565,2114 -1718,2201 1271,7 2014,-777 1857,-2172zm-1457 -407c428,243 673,586 688,1057 20,656 -528,1188 -1172,1198 -641,9 -1209,-545 -1189,-1202 17,-554 338,-937 853,-1116l2979 -1031c-250,-111 -499,-221 -749,-331l-1845 544c-2077,612 -2116,3269 -6,3391 1281,-55 1938,-980 1660,-2165l485 -935 -1704 590zm-566 -2682c645,-35 1180,216 1558,603 -250,-568 -760,-861 -1558,-603zm1604 120c828,47 1458,567 1740,1253 101,-1385 737,-2698 1753,-3640l0 0c-997,703 -1564,1556 -1781,2532 -608,-270 -1172,-275 -1712,-145zm4078 -2859c-498,955 -614,2174 -325,3264 137,515 372,998 675,1436 15,22 30,44 44,64l0 0c512,524 665,1100 548,1597 -195,832 -1041,1287 -1806,1221 -890,-78 -1671,-860 -1191,-2574 -235,357 -366,787 -353,1248 33,1206 1026,2138 2193,2117 1189,-21 2130,-945 2149,-2158 10,-569 -211,-1087 -592,-1504 812,-278 1336,-978 1405,-1786l-19 -522c-161,1210 -1123,1979 -2073,1944 -938,-1319 -1115,-2746 -655,-4347zm-215 263c-1179,935 -1930,2350 -2040,3855l-26 352 -133 -326c-213,-518 -615,-908 -1120,-1091 388,298 623,747 660,1268l4 63 -3038 1053c-484,167 -782,520 -798,1040 -18,602 505,1125 1105,1116 600,-9 1109,-506 1090,-1113 -14,-455 -258,-767 -646,-986l-159 -91 1937 -671 36 53c265,392 402,881 395,1354 -18,1324 -1113,2378 -2435,2358 -717,-11 -1392,-347 -1840,-907 -168,-211 -300,-450 -388,-705 -91,-264 -133,-541 -123,-819 27,-811 440,-1601 1144,-2022 153,-91 316,-163 486,-212l1819 -529c-162,-144 -347,-261 -549,-344 -269,-109 -554,-152 -843,-137l-225 12 163 -155c258,-245 559,-441 892,-568 314,-119 645,-175 980,-163 217,7 433,40 642,98 879,-1761 2519,-2951 4471,-3230l196 -28 -117 160c-459,622 -714,1355 -730,2129 -15,698 169,1400 527,2000 611,64 1192,-215 1538,-721l118 -172 32 206c159,1019 -380,1976 -1327,2357 346,416 543,921 534,1469 -20,1246 -984,2218 -2230,2240 -1234,22 -2244,-968 -2278,-2198 -8,-288 39,-575 139,-845 96,-261 241,-501 426,-709 385,-433 918,-699 1496,-749l58 -5 25 53c72,158 152,313 237,465l85 153 -172 -31c-705,-127 -1333,393 -1333,1111 0,630 518,1117 1142,1109 312,-3 616,-141 826,-371 195,-212 293,-484 271,-772 -29,-405 -206,-599 -427,-920 -308,-445 -548,-937 -687,-1462 -73,-277 -121,-561 -144,-846 -33,-429 -11,-865 69,-1288 58,-303 145,-603 265,-888zm-5322 5396l-263 91c-353,122 -563,356 -574,737 -13,414 356,780 768,774 415,-6 776,-348 763,-771 -10,-337 -192,-546 -477,-708l-217 -123zm2807 1229c-343,1139 -1411,1960 -2658,1941 -1492,-23 -2728,-1273 -2678,-2774 38,-1138 754,-2218 1869,-2542l1056 -307c-431,-116 -1167,-148 -1642,8 539,-934 1558,-1644 2928,-1598 153,6 305,22 455,50 1299,-2360 3353,-3084 5579,-3318 -949,1080 -1799,2631 -859,4406 860,-17 1424,-786 1658,-1449 214,1383 459,2681 -1000,3565 245,404 379,864 371,1351 -23,1425 -1132,2541 -2557,2566 -1200,22 -2217,-790 -2522,-1899zm2761 -1920l-287 -52c-502,-90 -943,274 -942,785 0,445 367,783 806,778 421,-5 802,-353 771,-787 -23,-309 -179,-483 -348,-724z"/>
 </g>
</svg>
