<?xml version="1.0" encoding="UTF-8"?>
<svg id="Layer_2" data-name="Layer 2" xmlns="http://www.w3.org/2000/svg" viewBox="0 0 830.53 356.63">
  <defs>
    <style>
      .cls-1 {
        fill: #c40000;
      }

      .cls-1, .cls-2, .cls-3 {
        fill-rule: evenodd;
      }

      .cls-2 {
        fill: red;
      }
    </style>
  </defs>
  <g id="Layer_1-2" data-name="Layer 1">
    <g id="Layer_1-3" data-name="Layer_1">
      <g id="_292481480" data-name=" 292481480">
        <path class="cls-3" d="M659.02,40.39c-1.37-4.03-2.09-8.28-2.09-12.24,0-12.38,6.77-28.15,21.17-28.15s21.24,15.77,21.24,28.15c0,3.96-.72,8.21-2.09,12.24h90.94l27,151.99c2.52,14.4,9.43,9.94,12.74-1.73,3.31,13.39,5.11,28.8-5.04,40.32l-.43,.43-.43,.43c-5.69,5.11-12.53,8.14-20.23,8.14-15.41,0-24.05-9.94-28.3-22.68h-73.22c-1.3,14.98-5.47,29.3-12.67,42.77-41.83,77.4-168.62,95.11-247.32,96.48-39.89,.65-80.57-2.16-119.88-8.93-31.82-5.4-66.67-14.04-95.83-28.22-24.05-11.74-50.98-33.05-47.81-63.07,2.09-20.23,18.94-37.58,39.46-38.95,.29-.07,.5-.07,.79-.07h-61.63c-.79,5.04-3.02,9.65-6.55,13.68l-.43,.43-.43,.43c-5.69,5.11-12.53,8.14-20.23,8.14-15.41,0-24.05-9.94-28.3-22.68H0c19.73-7.2,38.74-16.34,44.64-36.43l13.46-75.46-5.26,.29c-9.43,.43-17.71-3.24-23.69-10.51-5.18-6.34-8.28-13.75-8.28-22.03,0-9.36,3.6-17.5,10.44-23.9,7.2-6.62,16.42-9.29,26.14-9.29h4.61c1.01,0,2.09,.07,3.17,.14,.72,.07,1.51,.22,2.23,.29h46.58l3.74,21.02c8.64-22.68,29.3-21.02,48.53-21.02h31.82l13.32-17.21h129.31l13.32,17.21h28.51l5.83,32.9v-.14c0-9.36,3.53-17.5,10.37-23.9,12.38-11.38,25.56-8.86,40.25-8.86h53.64c7.92,0,15.7,1.87,21.96,6.98,1.22,1.01,2.38,2.09,3.38,3.24,.43-.43,.94-.86,1.37-1.37,12.96-11.95,26.64-8.86,42.55-8.86h97.06Zm41.69,51.34v110.3l7.78-4.39c5.4-3.1,8.57-10.94,10.22-16.78l13.46-75.46-5.18,.29c-9.43,.43-17.71-3.24-23.76-10.51-.86-1.15-1.73-2.3-2.52-3.46Zm-67.39-39.53v53.71h-9.65v39.24h-22.32v-10.51c0-3.53-1.22-8.21-2.45-11.95v83.52c29.88,10.58,56.23,15.98,56.23-22.25V66.67c0-1.22-.14-4.82-.94-6.05l-20.88-8.42Zm8.71,197.28c-1.66,.22-3.31,.36-4.97,.36-10.51,0-24.7-5.9-34.13-10.22l-20.88-9.36c-11.3-4.68-21.38-1.22-32.04,2.38l-5.04-14.18c-2.52,12.6-14.62,21.53-27.29,21.53-13.9,0-24.7-10.73-30.1-22.68h-63.72c-2.16,13.39-14.18,22.68-27.65,22.68-15.41,0-24.05-9.94-28.3-22.68h-82.51l-2.66,9c-1.58,5.4-5.47,9.5-9.94,12.6l-.36,.29-.36,.22c-4.61,2.59-9.72,3.67-14.98,3.67-3.1,0-5.98-.36-8.71-1.15l-12.74,1.51c-4.68,.58-12.89,2.52-14.62,7.78-1.15,3.6,.86,7.92,2.81,10.87,4.54,6.77,12.38,12.02,19.58,15.48,24.48,11.81,55.8,18.94,82.44,23.54,36.58,6.41,74.45,9.5,111.6,9.58,42.98,.07,89.78-3.82,131.04-16.34,26.28-7.99,56.66-21.6,73.51-44.86Zm-418.97-31.97c0-.07-.07-.14-.07-.22h-2.45c.79,.07,1.66,.14,2.52,.22Zm291.46-126.14c-.79,.86-1.73,1.66-2.66,2.45l-.22,14.83c.07,15.12,9.14,49.03,12.38,65.23,1.08,5.54,2.09,10.73,3.6,16.13,3.96,14.9,13.68,14.54,15.62,1.94,2.81,5.76,2.02,13.9,2.23,20.3,5.83-2.59,7.85-3.38,7.85-12.74V102.96c-.86,.36-1.73,.65-2.59,.94l-4.32,1.51-5.4,.29c-9.43,.43-17.71-3.24-23.69-10.51-1.01-1.22-1.94-2.52-2.81-3.82Zm-124.13-7.13l18.58,104.76c2.23,12.46,5.83,15.62,13.39,1.66l.86,10.01c5.54-2.3,9.07-2.74,9.5-16.06,.86-23.69-.07-73.22-.07-81.65-17.14,8.21-36.07-1.66-42.26-18.72Zm-91.51,12.31v94.46c0,1.87,.14,5.54,2.09,6.62l.94,.58,1.01-.58c5.4-3.1,8.57-10.94,10.22-16.78l13.46-75.46-5.18,.29c-8.86,.36-16.63-2.81-22.54-9.14Zm-45.58-42.98l-7.7,5.76c-4.75,3.6-6.48,8.21-6.48,14.04v61.7l14.18,38.74V53.57Zm-32.9,157.9c-.07-.29-.22-.58-.36-.94l-32.54-84.24v58.03c0,5.83,1.66,10.51,6.34,14.11l20.74,15.7,5.83-2.66Zm-65.95-13.82c4.25-3.31,5.54-7.92,5.54-13.32V102.96c-11.95,5.69-27.43,2.59-36-7.78-.07-.14-.14-.22-.22-.36l18.65,105.19,11.45-9.36,.58,6.98Zm-57.31,10.51l-13.54-74.81c-.43-2.38-1.01-4.97-1.66-7.56l-9.79,54.86c0,2.81,.07,5.62,.22,8.35,.07,1.22,.14,2.59,.29,3.82,1.01,1.94,4.03,3.89,5.69,4.75l18.79,10.58Zm268.49,0l-13.54-74.81c-.43-2.38-.94-4.97-1.66-7.56l-9.79,54.86c0,2.81,.07,5.62,.22,8.35,.07,1.22,.14,2.59,.29,3.82,1.01,1.94,4.03,3.89,5.69,4.75l18.79,10.58Zm405.58,0l-13.54-74.81c-.43-2.38-.94-4.97-1.66-7.56l-9.79,54.86c0,2.81,.07,5.62,.22,8.35,.07,1.22,.14,2.59,.29,3.82,1.01,1.94,4.03,3.89,5.69,4.75l18.79,10.58Z"/>
        <g>
          <path class="cls-2" d="M105.26,50.9h-38.59c-.86-.14-1.66-.22-2.45-.29-.72-.07-1.51-.14-2.16-.14h-4.61c-7.99,0-14.33,2.16-19.01,6.55-4.68,4.32-7.06,9.72-7.06,16.13,0,5.47,2.02,10.58,5.9,15.34s8.93,6.98,15.12,6.7l3.74-.22,3.6-1.22c1.08-.14,2.23-1.08,3.31-2.74-7.78-1.58-11.74-6.84-11.74-15.98,0-3.89,1.22-7.85,3.6-11.74,2.88-3.46,6.48-5.26,10.66-5.26,6.77,0,10.08,2.88,10.08,8.64l-20.74,116.64c-3.38,11.74-8.5,19.51-15.34,23.47h33.55c-5.69-3.24-9.29-6.91-10.66-11.16-.29-1.37-.5-3.38-.65-6.05s-.22-5.98-.22-9.86l13.82-77.62c8.71,0,14.83,9.79,18.5,29.38l13.61,75.31c2.66,15.12,9.36,22.68,20.16,22.68,4.75,0,9.14-1.87,13.18-5.47,3.24-3.67,4.61-7.85,4.18-12.6-1.51,1.22-3.31,1.87-5.4,1.87-3.67,0-5.9-2.16-6.77-6.48L105.26,50.9Zm-28.51,43.63l1.66-7.99c.86-3.89,1.22-6.26,1.22-7.13l2.52-14.69,1.73,8.42c.65,3.89,1.01,6.05,1.01,6.26,.29,1.58,.58,2.95,.86,4.25,.29,1.22,.5,2.38,.65,3.31l1.01,7.56h-10.66Zm195.91,128.81h-3.82c-3.6,0-6.84-2.45-9.65-7.34-1.8-1.8-3.46-4.9-5.04-9.22l-25.56-69.84v-63.58c0-9.65,3.6-17.14,10.73-22.46h-27.72c7.13,5.33,10.73,12.74,10.73,22.25v46.37l-25.2-68.62h-35.64c-.86-.14-1.66-.22-2.45-.29-.72-.07-1.51-.14-2.16-.14h-4.61c-7.99,0-14.33,2.16-19.01,6.55-4.68,4.32-7.06,9.72-7.06,16.13,0,5.47,1.94,10.58,5.9,15.34,3.89,4.75,8.93,6.98,15.12,6.7l3.74-.22,3.6-1.22c1.08-.14,2.23-1.08,3.31-2.74-7.85-1.58-11.74-6.84-11.74-15.98,0-3.89,1.22-7.85,3.6-11.74,2.88-3.46,6.48-5.26,10.66-5.26,6.7,0,10.08,2.88,10.08,8.64v117.65c0,9.94-3.6,17.42-10.73,22.46h27.72c-6.98-5.33-10.51-12.82-10.51-22.46V69.77l52.85,137.02c6.77,17.21,15.84,25.78,27.29,25.78,3.82,0,6.98-.72,9.65-2.3,3.24-2.23,5.18-4.54,5.9-6.91ZM206.57,46.73c18.43-4.75,37.58-7.13,57.24-7.13V191.02c0,1.44-.22,3.17-.79,5.26-1.58,5.76-3.74,9.22-6.55,10.51h39.24c-4.9-2.81-7.34-8.06-7.34-15.77V40.03c20.59,0,39.67,2.23,57.31,6.7l-10.08-13.03h-118.94l-10.08,13.03Zm167.18,4.18h-38.59c-.86-.14-1.66-.22-2.38-.29-.79-.07-1.51-.14-2.23-.14h-4.61c-7.99,0-14.33,2.16-19.01,6.55-4.68,4.32-6.98,9.72-6.98,16.13,0,5.47,1.94,10.58,5.83,15.34,3.96,4.75,8.93,6.98,15.12,6.7l3.74-.22,3.6-1.22c1.08-.14,2.23-1.08,3.31-2.74-7.78-1.58-11.74-6.84-11.74-15.98,0-3.89,1.22-7.85,3.6-11.74,2.95-3.46,6.48-5.26,10.66-5.26,6.77,0,10.08,2.88,10.08,8.64l-20.74,116.64c-3.38,11.74-8.5,19.51-15.34,23.47h33.55c-5.69-3.24-9.29-6.91-10.66-11.16-.29-1.37-.5-3.38-.65-6.05s-.22-5.98-.22-9.86l13.82-77.62c8.71,0,14.83,9.79,18.5,29.38l13.61,75.31c2.66,15.12,9.36,22.68,20.16,22.68,4.75,0,9.14-1.87,13.18-5.47,3.24-3.67,4.61-7.85,4.25-12.6-1.58,1.22-3.38,1.87-5.47,1.87-3.67,0-5.9-2.16-6.7-6.48l-27.72-155.88Zm-28.51,43.63l1.66-7.99c.86-3.89,1.3-6.26,1.3-7.13l2.52-14.69,1.66,8.42c.72,3.89,1.01,6.05,1.01,6.26,.29,1.58,.58,2.95,.86,4.25,.29,1.22,.5,2.38,.65,3.31l1.01,7.56h-10.66Zm149.76,112.25c1.51,5.83,4.18,10.87,7.99,15.12,4.32,5.04,9.22,7.56,14.69,7.56,4.9,0,9.14-1.87,12.74-5.47s4.97-7.7,4.46-12.6c-1.73,1.22-2.95,1.87-3.82,1.87-3.1,0-5.54-1.73-7.34-5.26-2.38-3.31-4.46-8.42-6.26-15.26-.86-2.81-2.09-8.42-3.82-16.78l-9.86-49.75c-1.8-9.07-2.66-14.98-2.66-17.64l.14-11.74c-6.84,1.58-12.53,2.3-17.14,2.3-1.3,0-2.66-.07-4.1-.22-1.51-.14-3.1-.29-4.75-.58,10.08-2.02,18.94-5.4,26.64-10.3,7.85-5.04,11.74-11.81,11.74-20.38,0-5.04-1.87-9.07-5.62-12.17-3.82-3.02-8.93-4.61-15.34-4.61h-58.54c-.79-.14-1.66-.22-2.38-.29-.79-.07-1.51-.14-2.23-.14h-4.61c-7.99,0-14.33,2.16-19.01,6.55-4.68,4.32-6.98,9.72-6.98,16.13,0,5.47,1.94,10.58,5.83,15.34,3.96,4.75,9,6.98,15.12,6.7l3.74-.22,3.6-1.22c1.15-.14,2.23-1.08,3.38-2.74-7.85-1.58-11.81-6.84-11.81-15.98,0-3.89,1.22-7.85,3.6-11.74,2.95-3.46,6.48-5.26,10.73-5.26,6.7,0,10.01,2.88,10.01,8.64v127.08c0,.72-.07,1.37-.14,1.87-1.15,5.9-3.53,9.65-7.2,11.16h39.24c-4.9-2.81-7.34-8.06-7.34-15.77V102.96c3.67,.58,6.48,3.46,8.42,8.78,.58,1.3,1.44,5.69,2.74,13.25l6.91,37.3c1.94,10.08,3.67,18.79,5.26,26.14,1.51,7.34,2.88,13.46,3.96,18.36Zm-27.29-140.11c0-6.05,2.74-9.07,8.21-9.07,3.38,0,5.98,1.3,7.99,3.89,1.94,2.59,2.88,5.76,2.88,9.58,0,4.9-1.44,9.5-4.39,13.82-3.31,5.04-7.27,7.56-11.74,7.56-1.94-.43-2.95-1.37-2.95-2.95v-22.82Zm120.67,42.12c0-4.46,2.23-6.7,6.7-6.7,5.4,.72,9.79,5.69,12.96,14.9,2.52,7.56,3.82,13.39,3.82,17.64h1.22v-39.67h-24.7v-28.94c0-4.75,2.23-7.13,6.7-7.13,9.36,0,16.34,3.89,20.95,11.74,3.82,6.55,5.69,14.83,5.69,24.77h1.01V50.9h-67.97c-.79-.14-1.58-.22-2.38-.29s-1.51-.14-2.23-.14h-4.61c-7.99,0-14.26,2.16-18.94,6.55-4.75,4.32-7.06,9.72-7.06,16.13,0,5.47,1.94,10.58,5.83,15.34,3.96,4.75,9,6.98,15.12,6.7l3.82-.22,3.53-1.22c1.15-.14,2.23-1.08,3.38-2.74-7.85-1.58-11.74-6.84-11.74-15.98,0-3.89,1.15-7.85,3.53-11.74,2.95-3.46,6.55-5.26,10.73-5.26,6.7,0,10.08,2.88,10.08,8.64V203.62c0,2.52-.58,5.47-1.73,8.86-1.51,3.74-3.38,6.05-5.62,6.91l2.52-.86,2.52-.22c1.8-.43,4.18-.65,7.13-.65,7.13,0,12.96,1.01,17.57,2.95l21.02,9.43c13.82,6.19,23.76,9.22,29.74,9.22,5.47,0,10.08-1.3,13.75-3.96,3.74-2.66,5.54-6.55,5.54-11.74,0-3.38-1.15-7.06-3.53-11.09-1.37,4.75-3.89,7.7-7.42,9-3.6,1.22-8.35,1.87-14.18,1.87-8.86,0-23.11-3.17-42.77-9.43V108.79Z"/>
          <path class="cls-2" d="M690.19,206.78V66.67c0-7.99,2.45-13.25,7.34-15.77h-39.24c4.9,1.94,7.34,7.2,7.34,15.77V208.22c0,141.91-326.02,127.37-426.74,78.84-36.29-17.5-38.66-49.97-4.46-54.07-31.75-23.54-85.9,37.66-5.26,76.97,121.97,59.47,461.02,58.61,461.02-103.18Z"/>
          <path class="cls-2" d="M779.33,50.9h-38.59c-.86-.14-1.66-.22-2.38-.29-.79-.07-1.51-.14-2.23-.14h-4.61c-7.99,0-14.33,2.16-19.01,6.55-4.68,4.32-6.98,9.72-6.98,16.13,0,5.47,1.94,10.58,5.83,15.34,3.96,4.75,8.93,6.98,15.12,6.7l3.74-.22,3.6-1.22c1.08-.14,2.23-1.08,3.31-2.74-7.78-1.58-11.74-6.84-11.74-15.98,0-3.89,1.22-7.85,3.6-11.74,2.95-3.46,6.48-5.26,10.66-5.26,6.77,0,10.08,2.88,10.08,8.64l-20.74,116.64c-3.38,11.74-8.5,19.51-15.34,23.47h33.55c-5.69-3.24-9.29-6.91-10.66-11.16-.29-1.37-.5-3.38-.65-6.05s-.22-5.98-.22-9.86l13.82-77.62c8.71,0,14.83,9.79,18.5,29.38l13.61,75.31c2.66,15.12,9.36,22.68,20.16,22.68,4.75,0,9.14-1.87,13.18-5.47,3.24-3.67,4.61-7.85,4.25-12.6-1.58,1.22-3.38,1.87-5.47,1.87-3.67,0-5.9-2.16-6.7-6.48l-27.72-155.88Zm-28.51,43.63l1.66-7.99c.86-3.89,1.3-6.26,1.3-7.13l2.52-14.69,1.66,8.42c.72,3.89,1.01,6.05,1.01,6.26,.29,1.58,.58,2.95,.86,4.25,.29,1.22,.5,2.38,.65,3.31l1.01,7.56h-10.66Z"/>
          <path class="cls-2" d="M678.1,10.51c5.9,0,10.73,7.92,10.73,17.64s-4.82,17.64-10.73,17.64-10.66-7.92-10.66-17.64,4.82-17.64,10.66-17.64Z"/>
        </g>
        <g>
          <path class="cls-1" d="M55.44,180.36l-.5,2.95c-3.38,11.74-8.5,19.51-15.34,23.47h33.55c-5.69-3.24-9.29-6.91-10.66-11.16-.29-1.37-.5-3.38-.65-6.05-.14-2.38-.22-5.33-.22-8.78-2.09-.14-4.1-.29-6.19-.43Zm47.81,2.74l4.32,23.69c2.66,15.12,9.36,22.68,20.16,22.68,4.75,0,9.14-1.87,13.18-5.47,3.24-3.67,4.61-7.85,4.18-12.6-1.51,1.22-3.31,1.87-5.4,1.87-3.67,0-5.9-2.16-6.7-6.48l-4.1-22.9c-8.57-.22-17.06-.5-25.63-.79Zm67.25,1.15c2.16-.07,4.32-.07,6.48-.07v.14c0,9.65,3.53,17.14,10.51,22.46h-27.72c7.13-5.04,10.73-12.53,10.73-22.46v-.07Zm50.26-1.08c8.14-.36,16.27-.65,24.41-1.08l9,24.7c1.58,4.32,3.24,7.42,5.04,9.22,2.81,4.9,6.05,7.34,9.65,7.34h3.82c-.72,2.38-2.66,4.68-5.9,6.91-2.66,1.58-5.83,2.3-9.65,2.3-11.45,0-20.52-8.57-27.22-25.78l-9.14-23.62Zm43.13-2.16c8.14-.5,16.34-1.08,24.48-1.73v11.74c0,7.7,2.45,12.96,7.34,15.77h-39.17c2.74-1.3,4.97-4.75,6.48-10.51,.58-2.09,.86-3.82,.86-5.26v-10.01Zm60.84-4.9c2.02-.22,4.1-.43,6.19-.65l-.79,4.25c0,3.89,.07,7.2,.22,9.86s.36,4.68,.65,6.05c1.37,4.25,4.97,7.92,10.66,11.16h-33.55c6.84-3.96,11.95-11.74,15.34-23.47l1.3-7.2Zm44.93-5.04c8.28-1.01,16.56-2.09,24.91-3.24l6.91,38.95c.79,4.32,3.1,6.48,6.7,6.48,2.09,0,3.89-.65,5.47-1.87,.43,4.75-1.01,8.93-4.25,12.6-4.03,3.6-8.42,5.47-13.18,5.47-10.8,0-17.5-7.56-20.16-22.68l-6.41-35.71Zm73.58-10.66c8.14-1.3,16.34-2.74,24.48-4.18v34.78c0,7.7,2.45,12.96,7.34,15.77h-39.17c3.6-1.51,5.98-5.26,7.13-11.16,.14-.5,.22-1.15,.22-1.87v-33.34Zm40.9-7.2c8.06-1.51,16.06-3.1,24.12-4.75l5.4,27.5c1.73,8.35,2.95,13.97,3.82,16.78,1.8,6.84,3.89,11.95,6.26,15.26,1.87,3.53,4.32,5.26,7.34,5.26,.86,0,2.09-.65,3.82-1.87,.58,4.9-.94,9.07-4.39,12.6-3.67,3.6-7.92,5.47-12.82,5.47-5.47,0-10.37-2.52-14.69-7.56-3.82-4.25-6.41-9.29-7.99-15.12-1.08-4.9-2.45-11.02-3.96-18.36-1.58-7.34-3.31-16.06-5.26-26.14l-1.66-9.07Zm79.7-16.92c8.21-1.87,16.34-3.89,24.55-5.9v83.52c19.73,6.26,33.98,9.43,42.77,9.43,5.9,0,10.58-.65,14.18-1.87,3.53-1.3,6.05-4.25,7.42-9,2.38,4.03,3.6,7.7,3.6,11.09,0,5.18-1.87,9.07-5.62,11.74-3.67,2.66-8.28,3.96-13.68,3.96-6.05,0-15.98-3.02-29.81-9.22l-20.95-9.43c-4.68-1.94-10.51-2.95-17.64-2.95-2.95,0-5.33,.22-7.13,.65l-2.52,.22-2.52,.86c2.23-.86,4.1-3.17,5.62-6.91,1.15-3.38,1.73-6.34,1.73-8.86v-67.32Zm46.51-11.52c.94-.29,1.87-.5,2.74-.72v10.58h-1.22c0-2.66-.5-5.98-1.51-9.86Z"/>
          <path class="cls-1" d="M690.19,206.78V101.81c-8.14,2.59-16.27,5.04-24.55,7.49v98.93c0,141.91-326.02,127.37-426.74,78.84-36.29-17.5-38.66-49.97-4.46-54.07-31.75-23.54-85.9,37.66-5.26,76.97,121.97,59.47,461.02,58.61,461.02-103.18Z"/>
          <path class="cls-1" d="M717.05,93.17c2.74,1.51,5.9,2.16,9.43,2.02l3.74-.22,3.6-1.22c1.08-.14,2.23-1.08,3.38-2.74-2.45-.5-4.46-1.37-6.19-2.52-4.61,1.58-9.29,3.17-13.97,4.68Zm29.81-10.15l-17.86,100.3c-3.38,11.74-8.5,19.51-15.34,23.47h33.55c-5.69-3.24-9.29-6.91-10.66-11.16-.29-1.37-.5-3.38-.65-6.05s-.22-5.98-.22-9.86l13.82-77.62c8.71,0,14.83,9.79,18.5,29.38l13.61,75.31c2.66,15.12,9.36,22.68,20.16,22.68,4.75,0,9.14-1.87,13.18-5.47,3.24-3.67,4.68-7.85,4.25-12.6-1.58,1.22-3.38,1.87-5.47,1.87-3.67,0-5.9-2.16-6.7-6.48l-24.34-136.87c-7.85,2.95-15.84,5.9-23.83,8.78,.07,.43,.14,.65,.14,.72,.22,1.58,.5,2.95,.79,4.25,.29,1.22,.5,2.38,.65,3.31l1.01,7.56h-10.66l1.66-7.99c.58-2.74,1.01-4.68,1.15-5.98-2.23,.86-4.54,1.66-6.77,2.45Z"/>
        </g>
      </g>
    </g>
  </g>
</svg>