<?xml version="1.0" encoding="UTF-8"?>
<!DOCTYPE svg PUBLIC "-//W3C//DTD SVG 1.1//EN" "http://www.w3.org/Graphics/SVG/1.1/DTD/svg11.dtd">
<!-- Creator: CorelDRAW X7 -->
<svg xmlns="http://www.w3.org/2000/svg" xml:space="preserve" width="11.811in" height="11.811in" version="1.1" style="shape-rendering:geometricPrecision; text-rendering:geometricPrecision; image-rendering:optimizeQuality; fill-rule:evenodd; clip-rule:evenodd"
viewBox="0 0 11811 11811"
 xmlns:xlink="http://www.w3.org/1999/xlink">
 <defs>
  <style type="text/css">
   <![CDATA[
    .fil0 {fill:black}
    .fil3 {fill:black}
    .fil2 {fill:#C40000}
    .fil4 {fill:red}
    .fil1 {fill:red}
   ]]>
  </style>
 </defs>
 <g id="Layer_x0020_1">
  <metadata id="CorelCorpID_0Corel-Layer"/>
  <g id="_287201264">
   <path class="fil0" d="M7160 2383c-436,559 -707,1243 -759,1958l-5 73c251,-218 564,-368 911,-423 -21,-65 -41,-130 -58,-196 -120,-452 -151,-939 -89,-1412zm-3313 3031l-186 64c-249,86 -398,251 -406,521 -9,292 252,551 543,547 293,-4 549,-246 540,-545 -8,-238 -136,-386 -338,-501l-153 -86zm1984 869c-242,805 -998,1385 -1879,1372 -1055,-17 -1928,-901 -1893,-1962 26,-804 533,-1568 1321,-1797l747 -217c-305,-82 -826,-105 -1161,6 381,-661 1101,-1163 2070,-1130 108,4 215,15 321,35 919,-1669 2371,-2180 3945,-2346 -671,764 -1272,1860 -607,3115 608,-11 1007,-555 1172,-1024 152,978 324,1896 -707,2520 173,286 268,611 262,956 -16,1007 -800,1796 -1807,1814 -849,15 -1568,-559 -1784,-1342zm1953 -1358l-203 -37c-355,-64 -667,194 -667,555 0,315 260,554 571,550 297,-4 567,-249 544,-557 -16,-218 -126,-341 -245,-511z"/>
   <path class="fil1" d="M4846 3775l-1384 403c-633,184 -1086,809 -1110,1525 -30,892 707,1645 1605,1658 896,14 1649,-700 1662,-1609 4,-321 -88,-656 -270,-924l-1204 417c302,172 475,414 486,747 14,465 -374,841 -829,847 -453,7 -854,-385 -840,-849 12,-392 239,-663 603,-789l2106 -730c-32,-454 -295,-870 -793,-1038 586,34 1031,401 1231,887 84,-1156 695,-2241 1653,-2908 -353,676 -435,1538 -230,2308 97,364 263,706 477,1015 171,248 291,382 313,680 36,490 -381,866 -834,871 -475,6 -867,-366 -867,-843 0,-546 479,-939 1012,-843 -60,-108 -117,-218 -170,-333 -811,70 -1426,752 -1404,1568 23,853 726,1512 1551,1497 840,-15 1505,-668 1519,-1526 7,-402 -149,-768 -418,-1063 695,-238 1091,-913 980,-1632 -251,366 -687,594 -1172,531 -527,-862 -571,-2054 132,-3009 -1360,195 -2524,1028 -3139,2296l0 0c-151,-47 -314,-75 -486,-81 -484,-16 -933,170 -1282,501 456,-25 835,153 1102,426z"/>
   <path class="fil2" d="M7762 1412c-353,676 -435,1538 -230,2308 97,364 263,706 477,1015 11,16 21,31 32,46l0 0c361,370 469,777 387,1128 -139,589 -736,910 -1277,864 -630,-55 -1181,-608 -842,-1820 -166,253 -259,557 -250,882 23,853 726,1512 1551,1497 840,-15 1505,-668 1519,-1526 7,-402 -149,-768 -418,-1063 574,-196 944,-691 993,-1263l-13 -369c-114,856 -795,1400 -1466,1374 -663,-932 -788,-1940 -463,-3073z"/>
   <path class="fil2" d="M4878 3433c586,34 1031,401 1231,887 71,-979 521,-1908 1239,-2574l0 0c-705,497 -1106,1100 -1259,1790 -430,-190 -829,-194 -1211,-103z"/>
   <path class="fil2" d="M3744 3349c456,-25 835,153 1102,426 -177,-402 -537,-609 -1102,-426z"/>
   <path class="fil2" d="M4145 5245c302,172 475,414 486,747 14,465 -374,841 -829,847 -453,7 -854,-385 -840,-849 12,-392 239,-663 603,-789l2106 -730c-177,-78 -353,-156 -530,-234l-1304 385c-1469,433 -1496,2312 -4,2398 905,-39 1370,-693 1174,-1531l342 -661 -1204 417z"/>
   <path class="fil2" d="M5175 5533c62,-192 124,-383 186,-574 -95,184 -190,369 -284,553 160,951 -400,1495 -1216,1557 899,5 1425,-550 1314,-1536z"/>
   <polygon class="fil2" points="5144,4085 5537,4348 5144,4167 3851,4529 "/>
   <path class="fil2" d="M4049 3239c372,-46 615,139 801,424 -180,-353 -383,-522 -801,-424z"/>
   <path class="fil2" d="M5947 3268c-263,-33 -521,-8 -776,56 293,-31 573,-12 838,60 145,-452 369,-852 693,-1187 -322,280 -592,618 -755,1071z"/>
   <path class="fil2" d="M8331 4296c-516,-658 -631,-1398 -678,-2122 -61,831 185,1559 621,2224 496,-29 974,-347 1179,-755 -247,333 -705,661 -1122,653z"/>
   <path class="fil2" d="M6251 5696c300,1024 1176,1181 1897,579 -646,725 -1779,520 -1897,-579z"/>
  </g>
  <path class="fil3" d="M8623 8042c-15,-45 -23,-93 -23,-137 0,-138 75,-314 236,-314 161,0 236,176 236,314 0,44 -7,92 -23,137 182,0 364,-1 545,-1l469 0 301 1695c28,161 105,110 142,-19 37,149 57,321 -56,449l-5 5 -5 4c-63,57 -139,91 -225,91 -172,0 -268,-111 -316,-252l-816 0c-15,167 -61,327 -142,476 -466,863 -1879,1061 -2756,1076 -445,8 -899,-24 -1337,-99 -355,-61 -743,-157 -1068,-315 -268,-131 -569,-369 -534,-703 24,-226 211,-419 440,-435 3,0 6,0 9,0l-687 0c-9,56 -34,107 -73,152l-5 5 -5 4c-63,57 -140,91 -225,91 -172,0 -268,-111 -316,-252l-1108 0c220,-81 432,-182 498,-406l150 -842 -59 3c-105,5 -197,-36 -264,-117 -58,-71 -92,-153 -92,-245 0,-104 39,-196 116,-266 80,-75 183,-104 291,-104l52 0c11,0 23,0 35,1 8,1 17,2 25,3l520 0 41 235c97,-253 327,-235 541,-235l355 0 149 -191 1441 0 148 191 318 0 65 367c0,-1 0,-1 0,-1 0,-104 40,-196 116,-266 138,-128 285,-100 449,-100l598 0c88,0 175,21 245,78 14,12 26,24 37,37 5,-5 11,-11 16,-15 144,-134 297,-100 474,-100l1082 1zm465 572l0 1230 86 -49c61,-35 96,-123 115,-187l150 -842 -59 3c-105,5 -197,-36 -264,-117 -10,-12 -19,-25 -28,-38zm-752 -441l0 599 -107 0 0 437 -249 0 0 -117c0,-39 -14,-91 -27,-133l0 931c333,118 627,178 627,-248l0 -1308c0,-13 -2,-54 -10,-67l-234 -94zm97 2200c-18,2 -36,3 -55,3 -117,0 -275,-66 -380,-113l-233 -105c-126,-52 -238,-13 -357,26l-56 -157c-29,140 -164,239 -305,239 -155,0 -275,-119 -335,-252l-710 0c-24,149 -159,252 -309,252 -171,0 -268,-111 -315,-252l-920 0 -30 100c-17,60 -61,106 -111,141l-4 2 -4 3c-51,29 -108,41 -166,41 -35,0 -67,-4 -98,-13l-142 17c-52,7 -144,28 -163,87 -13,40 10,88 32,121 50,75 137,134 218,173 273,131 622,210 919,262 408,71 830,106 1244,107 479,1 1001,-43 1461,-183 293,-89 632,-240 819,-499zm-4670 -357c-1,-1 -1,-2 -1,-2l-28 0c10,0 19,1 29,2zm3249 -1406c-9,9 -19,18 -29,27l-3 166c1,168 102,546 138,727 12,61 23,119 40,180 44,165 153,161 174,21 32,64 22,155 25,226 65,-28 87,-37 87,-142l0 -1076c-9,4 -18,8 -29,10l-48 17 -60 3c-105,5 -197,-36 -264,-117 -11,-14 -21,-28 -31,-42zm-1384 -79l207 1167c25,139 65,175 150,19l9 112c62,-26 101,-31 106,-179 9,-265 0,-817 0,-911 -192,92 -403,-18 -472,-208zm-1020 137l0 1053c0,21 2,61 23,74l11 6 11 -6c60,-35 95,-123 114,-187l150 -842 -58 3c-98,5 -185,-31 -251,-101zm-508 -479l-86 64c-53,39 -72,91 -72,156l0 688 158 432 0 -1340zm-367 1760c-1,-4 -3,-7 -4,-10l-362 -940 0 647c0,65 18,117 70,157l231 175 65 -29zm-735 -154c47,-38 61,-88 61,-149l0 -907c-132,64 -306,29 -401,-87 -1,-1 -2,-2 -2,-3l208 1172 127 -104 7 78zm-639 117l-151 -834c-5,-27 -11,-56 -19,-85l-109 612c0,31 1,62 2,93 1,14 2,29 4,43 11,21 45,43 63,53l210 118zm2993 0l-151 -834c-5,-27 -11,-56 -18,-85l-109 612c0,31 0,62 2,93 1,14 1,29 3,43 11,21 45,43 63,53l210 118zm4522 0l-151 -834c-5,-27 -11,-56 -19,-85l-109 612c0,31 1,62 2,93 1,14 2,29 4,43 11,21 45,43 63,53l210 118z"/>
  <g id="_284117664">
   <path class="fil4" d="M2449 8159l-430 0c-9,-2 -18,-3 -27,-4 -8,0 -17,-1 -24,-1l-52 0c-89,0 -159,24 -211,73 -53,48 -79,108 -79,180 0,61 22,117 66,170 43,53 99,78 168,75l42 -2 40 -14c12,-2 25,-12 37,-31 -87,-17 -131,-76 -131,-177 0,-44 14,-88 40,-131 33,-39 73,-59 119,-59 75,0 113,32 113,96l-232 1300c-37,131 -94,219 -171,262l375 0c-64,-35 -104,-77 -120,-124 -3,-15 -5,-38 -7,-67 -1,-30 -2,-67 -2,-110l154 -866c97,0 166,110 206,328l152 839c30,169 105,253 225,253 53,0 102,-20 147,-61 36,-40 51,-87 47,-140 -17,14 -38,21 -61,21 -41,0 -66,-24 -75,-73l-309 -1737zm-318 486l19 -89c9,-43 14,-70 14,-79l28 -164 19 94c8,43 12,67 12,70 3,17 6,33 9,47 3,14 5,26 7,37l12 84 -120 0zm2185 1436l-42 0c-41,0 -77,-27 -108,-82 -20,-20 -39,-54 -56,-103l-285 -778 0 -709c0,-108 39,-191 119,-250l-309 0c80,59 119,142 119,248l0 517 -280 -765 -398 0c-9,-2 -18,-3 -27,-4 -8,0 -17,-1 -24,-1l-52 0c-89,0 -159,24 -211,73 -53,48 -79,108 -79,180 0,61 22,117 66,170 43,53 100,78 168,75l42 -2 40 -14c12,-2 25,-12 37,-31 -87,-17 -131,-76 -131,-177 0,-44 14,-88 40,-131 33,-39 73,-59 119,-59 75,0 113,32 113,96l0 1312c0,111 -40,194 -120,250l309 0c-78,-59 -117,-142 -117,-250l0 -1277 590 1527c74,192 176,288 304,288 42,0 78,-9 107,-26 36,-25 58,-50 66,-77zm-737 -1969c206,-53 419,-79 638,-79l0 1688c0,16 -3,35 -9,58 -17,64 -41,103 -72,117l437 0c-55,-31 -82,-89 -82,-175l0 -1684c229,0 442,25 638,75l-112 -145 -1326 0 -112 145zm1864 47l-430 0c-10,-2 -19,-3 -27,-4 -9,0 -17,-1 -25,-1l-51 0c-89,0 -160,24 -212,73 -52,48 -78,108 -78,180 0,61 21,117 65,170 44,53 100,78 168,75l43 -2 39 -14c13,-2 25,-12 38,-31 -88,-17 -131,-76 -131,-177 0,-44 13,-88 40,-131 32,-39 72,-59 119,-59 75,0 112,32 112,96l-231 1300c-38,131 -95,219 -171,262l374 0c-64,-35 -104,-77 -119,-124 -3,-15 -6,-38 -7,-67 -2,-30 -3,-67 -3,-110l155 -866c96,0 165,110 206,328l152 839c29,169 104,253 224,253 53,0 102,-20 147,-61 36,-40 52,-87 47,-140 -17,14 -37,21 -61,21 -40,0 -65,-24 -74,-73l-309 -1737zm-318 486l18 -89c10,-43 15,-70 15,-79l28 -164 18 94c8,43 12,67 12,70 3,17 6,33 9,47 3,14 6,26 7,37l12 84 -119 0zm1670 1251c17,66 46,122 88,169 49,56 103,84 164,84 55,0 102,-20 143,-61 39,-39 55,-86 49,-140 -19,14 -33,21 -42,21 -35,0 -62,-20 -82,-59 -27,-37 -50,-94 -70,-170 -10,-31 -24,-94 -42,-187l-110 -555c-21,-101 -31,-166 -31,-196l3 -131c-77,17 -141,26 -192,26 -14,0 -29,-1 -46,-3 -16,-1 -34,-4 -52,-7 112,-21 211,-60 297,-114 87,-56 131,-132 131,-227 0,-56 -21,-101 -63,-136 -43,-34 -99,-51 -171,-51l-653 0c-9,-2 -18,-3 -27,-4 -8,0 -16,-1 -24,-1l-52 0c-88,0 -159,24 -211,73 -52,48 -79,108 -79,180 0,61 22,117 66,170 44,53 100,78 168,75l42 -2 40 -14c13,-2 25,-12 38,-31 -88,-17 -131,-76 -131,-177 0,-44 13,-88 39,-131 33,-39 73,-59 120,-59 74,0 112,32 112,96l0 1387c0,11 0,21 0,30 0,8 -1,15 -2,21 -13,66 -39,107 -80,124l437 0c-54,-31 -81,-89 -81,-175l0 -982c40,6 71,39 93,98 6,14 16,63 30,147l78 417c21,112 41,209 58,291 17,82 32,150 45,204zm-304 -1562c0,-67 30,-100 91,-100 37,0 67,14 89,43 21,29 32,64 32,106 0,55 -16,106 -49,155 -37,56 -81,84 -131,84 -22,-5 -32,-16 -32,-33l0 -255zm1344 470c0,-50 25,-75 75,-75 61,8 109,64 145,166 28,85 42,150 42,197l14 0 0 -442 -276 0 0 -323c0,-53 25,-79 75,-79 104,0 182,43 234,131 42,73 63,165 63,276l12 0 0 -496 -758 0c-9,-2 -18,-3 -27,-4 -8,0 -17,-1 -24,-1l-52 0c-89,0 -159,24 -212,73 -52,48 -78,108 -78,180 0,61 22,117 66,170 43,53 99,78 168,75l42 -2 40 -14c12,-2 25,-12 37,-31 -87,-17 -131,-76 -131,-177 0,-44 14,-88 40,-131 33,-39 73,-59 119,-59 75,0 113,32 113,96l0 1527c0,28 -7,61 -19,99 -17,42 -38,67 -63,77l28 -10 28 -2c20,-5 47,-7 79,-7 80,0 145,11 197,33l234 105c154,69 265,103 332,103 61,0 112,-15 153,-45 41,-29 62,-73 62,-131 0,-37 -13,-78 -40,-123 -15,53 -43,86 -83,100 -40,14 -92,21 -158,21 -98,0 -257,-35 -477,-105l0 -1172z"/>
   <path class="fil4" d="M8971 9896l0 -1562c0,-89 27,-147 82,-175l-438 0c55,22 82,80 82,175l0 1579c0,1582 -3635,1420 -4758,878 -404,-195 -430,-556 -50,-602 -353,-263 -957,419 -58,858 1359,663 5140,653 5140,-1151z"/>
   <path class="fil4" d="M9964 8159l-430 0c-9,-2 -18,-3 -27,-4 -8,0 -17,-1 -24,-1l-52 0c-89,0 -159,24 -211,73 -53,48 -79,108 -79,180 0,61 22,117 66,170 43,53 99,78 168,75l42 -2 40 -14c12,-2 25,-12 37,-31 -87,-17 -131,-76 -131,-177 0,-44 14,-88 40,-131 33,-39 73,-59 119,-59 75,0 113,32 113,96l-232 1300c-37,131 -94,219 -171,262l375 0c-64,-35 -104,-77 -120,-124 -3,-15 -5,-38 -7,-67 -1,-30 -2,-67 -2,-110l154 -866c97,0 166,110 206,328l152 839c30,169 105,253 225,253 53,0 102,-20 147,-61 36,-40 51,-87 47,-140 -17,14 -38,21 -61,21 -41,0 -66,-24 -75,-73l-309 -1737zm-318 486l19 -89c9,-43 14,-70 14,-79l28 -164 19 94c8,43 12,67 12,70 3,17 6,33 9,47 3,14 5,26 7,37l12 84 -120 0z"/>
   <path class="fil4" d="M8836 7708c66,0 119,88 119,197 0,108 -53,196 -119,196 -66,0 -119,-88 -119,-196 0,-109 53,-197 119,-197z"/>
  </g>
  <g id="_284115816">
   <path class="fil2" d="M1894 9602l-6 32c-37,131 -94,219 -171,262l375 0c-64,-35 -104,-77 -120,-124 -3,-15 -5,-38 -7,-67 -1,-27 -2,-60 -2,-98 -23,-2 -46,-3 -69,-5zm533 30l48 264c30,169 105,253 225,253 53,0 102,-20 147,-61 36,-40 51,-87 47,-140 -17,14 -38,21 -61,21 -41,0 -66,-24 -75,-73l-45 -255c-96,-2 -191,-5 -286,-9zm750 13c24,0 48,-1 72,-1l0 2c0,108 39,191 117,250l-309 0c80,-56 120,-139 120,-250l0 -1zm560 -12c91,-3 181,-7 272,-12l101 275c17,49 36,83 56,103 31,55 67,82 108,82l42 0c-8,27 -30,52 -66,77 -29,17 -65,26 -107,26 -128,0 -230,-96 -304,-288l-102 -263zm480 -24c92,-6 183,-12 274,-19l0 131c0,86 27,144 82,175l-437 0c31,-14 55,-53 72,-117 6,-23 9,-42 9,-58l0 -112zm679 -55c23,-2 46,-4 69,-7l-9 48c0,43 1,80 3,110 1,29 4,52 7,67 15,47 55,89 119,124l-374 0c76,-43 133,-131 171,-262l14 -80zm501 -55c92,-12 185,-24 277,-37l78 434c9,49 34,73 74,73 24,0 44,-7 61,-21 5,53 -11,100 -47,140 -45,41 -94,61 -147,61 -120,0 -195,-84 -224,-253l-72 -397zm820 -119c91,-15 183,-31 274,-47l0 388c0,86 27,144 81,175l-437 0c41,-17 67,-58 80,-124 1,-6 2,-13 2,-21 0,-9 0,-19 0,-30l0 -341zm456 -81c90,-17 180,-35 269,-53l61 307c18,93 33,156 42,187 20,76 44,133 70,170 20,39 48,59 82,59 9,0 23,-7 42,-21 6,54 -10,101 -49,140 -41,41 -88,61 -143,61 -61,0 -115,-28 -164,-84 -42,-47 -71,-103 -88,-169 -13,-54 -28,-122 -45,-204 -17,-82 -36,-179 -58,-291l-19 -102zm889 -188c91,-22 182,-44 273,-66l0 931c220,70 379,105 477,105 66,0 119,-7 158,-21 40,-14 68,-47 83,-100 27,45 40,86 40,123 0,58 -21,102 -62,131 -41,30 -92,45 -153,45 -67,0 -178,-34 -332,-103l-234 -105c-52,-22 -117,-33 -197,-33 -32,0 -59,2 -79,7l-28 2 -28 10c25,-10 46,-35 63,-77 12,-38 19,-71 19,-99l0 -750zm519 -129c10,-3 20,-5 30,-8l0 118 -14 0c0,-29 -5,-66 -16,-110z"/>
   <path class="fil2" d="M8971 9896l0 -1170c-91,29 -182,56 -274,84l0 1103c0,1582 -3635,1420 -4758,878 -404,-195 -430,-556 -50,-602 -353,-263 -957,419 -58,858 1359,663 5140,653 5140,-1151z"/>
   <path class="fil2" d="M9270 8630c31,17 66,24 105,22l42 -2 40 -14c12,-2 25,-12 37,-31 -27,-5 -49,-14 -68,-27 -52,17 -104,35 -156,52zm332 -113l-199 1117c-37,131 -94,219 -171,262l375 0c-64,-35 -104,-77 -120,-124 -3,-15 -5,-38 -7,-67 -1,-30 -2,-67 -2,-110l154 -866c97,0 166,110 206,328l152 839c30,169 105,253 225,253 53,0 102,-20 147,-61 36,-40 51,-87 47,-140 -17,14 -38,21 -61,21 -41,0 -66,-24 -75,-73l-271 -1526c-88,34 -176,67 -265,99 0,4 1,7 1,8 3,17 6,33 9,47 3,14 5,26 7,37l12 84 -120 0 19 -89c7,-30 11,-53 13,-66 -25,9 -51,18 -76,27z"/>
  </g>
 </g>
</svg>
