<svg width="129" height="46" viewBox="0 0 129 46" fill="none" xmlns="http://www.w3.org/2000/svg">
<path d="M42.1553 0.891052L40.877 1.18158L40.6736 1.29779L42.1553 0.891052Z" fill="#641913"/>
<path d="M20.7143 24.2202L19.407 24.5107L19.2036 24.3074C19.2269 24.2609 20.54 24.133 20.7143 24.2202Z" fill="#641913"/>
<path d="M22.9807 21.8669L21.7024 22.1575L22.051 21.4602L22.9807 21.8669Z" fill="#641913"/>
<path d="M10.5171 37.5552L9.23877 37.8457C9.26201 37.7295 10.1007 36.7514 10.5171 36.2769V37.5552Z" fill="#641913"/>
<path d="M43.9853 20.7339L42.707 21.0244C42.707 21.0825 42.6973 21.1794 42.678 21.2278C42.7942 21.251 43.9853 20.9082 43.9853 20.7339Z" fill="#641913"/>
<path d="M30.9119 35.8993L29.6626 37.8458L30.97 37.5553L30.9119 35.8993Z" fill="#641913"/>
<g filter="url(#filter0_d_90_622)">
<path d="M21.697 22.159C25.1068 15.8598 25.1152 11.1798 32.7721 8.13626C31.3063 10.9968 31.9108 9.62543 33.2607 22.7309C33.2607 24.5428 36.5181 25.2996 37.4953 24.9817C36.681 25.9353 34.3818 26.9751 35.0523 30.6679C35.8666 35.1526 33.1467 42.2578 27.4465 41.8787C25.2802 41.3883 21.0456 34.3387 26.5571 34.3387C29.4768 34.3387 29.6776 35.1526 29.6776 37.8542L31.0547 35.678C33.172 30.6998 27.7726 29.0445 23.8791 31.0185C17.4142 35.8955 21.75 43.5753 27.4465 44.8467C34.4965 45.3156 40.1556 35.1843 38.5236 30.6679C37.2389 27.1128 42.7071 22.9905 42.7071 21.0344C41.928 21.4685 38.4935 22.5271 36.7504 21.4938C35.0808 5.28505 36.5604 3.69106 40.8782 1.18158C30.5419 3.77984 23.634 9.75951 19.4169 17.5503C15.0969 15.8527 9.13031 18.801 7.69033 19.8664C10.2671 20.2033 13.0951 20.8832 14.9872 22.7309C7.82672 22.7309 -0.615986 28.7958 0.0354948 35.678C1.50131 43.2953 8.3418 47.1094 15.2221 44.0521C22.1024 40.9949 20.2645 30.3974 16.6737 29.4496C13.899 28.7173 9.99884 29.7316 9.23006 32.994V37.8542C10.6959 35.9472 13.3907 32.7241 15.9966 33.8365C19.3358 35.4938 16.6481 40.238 13.7165 41.3883C7.11608 42.421 5.41016 37.8542 5.08443 34.3387C5.08443 28.724 13.6274 24.505 19.4169 24.505C17.887 23.0111 17.7882 21.0344 15.9966 19.8664C17.7882 19.1395 18.2042 20.7864 21.697 22.159Z" fill="#E4252C"/>
</g>
<g filter="url(#filter1_d_90_622)">
<path d="M56.3184 25.5533C56.0763 25.5533 55.8681 25.6404 55.6937 25.8147C55.5194 25.9794 55.4274 26.1827 55.4177 26.4248V33.9204C55.4177 34.5692 55.4613 35.1164 55.5485 35.5618L55.5921 35.7797H55.4613L48.1256 28.7926V34.5595C48.1256 34.8016 48.2127 35.0098 48.387 35.1841C48.5614 35.3488 48.7696 35.4311 49.0117 35.4311H49.2877V35.5764H44.8862V35.4311H45.1477C45.3995 35.4311 45.6125 35.3488 45.7869 35.1841C45.9612 35.0098 46.0483 34.7968 46.0483 34.545V27.0059C46.0483 26.3667 46.0047 25.8341 45.9176 25.408L45.8885 25.1901H46.0193L53.355 32.1772V26.4394C53.3453 26.1876 53.2533 25.9794 53.079 25.8147C52.9047 25.6404 52.6965 25.5533 52.4544 25.5533H52.1929V25.408H56.5944V25.5533H56.3184ZM58.5443 28.7926C58.0698 28.3374 57.8325 27.8484 57.8325 27.3255C57.8325 26.9187 57.9632 26.5652 58.2247 26.265C58.7186 25.684 59.411 25.3935 60.302 25.3935H67.1438C67.5699 25.3838 67.9428 25.3499 68.2623 25.2918C68.5819 25.224 68.7853 25.1707 68.8724 25.132V27.6596H68.7272V27.4852C68.7272 27.0495 68.5964 26.696 68.335 26.4248C68.0735 26.1537 67.72 26.0133 67.2746 26.0036H65.3135V34.5305C65.3329 34.8791 65.4927 35.1406 65.7929 35.3149C65.9285 35.3924 66.0786 35.4311 66.2432 35.4311H66.432V35.5764H62.0161V35.4311H62.2049C62.4567 35.4311 62.6697 35.3439 62.8441 35.1696C63.0281 34.9953 63.1249 34.7871 63.1346 34.545V26.0036H60.302C59.9049 26.0036 59.5563 26.0762 59.2561 26.2215C58.646 26.512 58.3409 26.9671 58.3409 27.5869C58.3409 27.9549 58.4571 28.3326 58.6895 28.72L58.5443 28.7926ZM84.0348 38.2347C82.9792 38.7673 81.9091 38.8544 80.8245 38.4961C79.672 38.1281 78.6794 37.3437 77.8466 36.1429C77.4011 35.5037 77.0186 34.7629 76.699 33.9204L76.2342 32.6856H72.806L72.0361 34.5159C71.9877 34.6418 71.9635 34.7435 71.9635 34.821C71.9635 34.8985 71.978 34.9856 72.007 35.0825C72.0458 35.1696 72.1184 35.2519 72.2249 35.3294C72.3411 35.3972 72.467 35.4311 72.6026 35.4311H72.7188V35.5764H69.6102V35.4311H69.7409C69.9637 35.4311 70.1816 35.3681 70.3946 35.2423C70.6174 35.1067 70.8014 34.9081 70.9466 34.6467L74.186 27.2528C73.8083 26.4006 73.4064 25.8147 72.9803 25.4952C72.622 25.224 72.2782 25.0884 71.9489 25.0884C71.6294 25.0884 71.3291 25.1368 71.0483 25.2337L71.0193 25.0884C71.7165 24.7301 72.3847 24.5509 73.0239 24.5509C73.818 24.5509 74.5298 24.8608 75.1592 25.4806C75.779 26.0907 76.3262 26.972 76.8007 28.1244L78.907 33.3248C79.7011 35.2907 80.5146 36.6416 81.3474 37.3776C81.6864 37.6778 82.035 37.886 82.3933 38.0022C82.7516 38.1184 83.0518 38.1766 83.2939 38.1766C83.5457 38.1766 83.7878 38.1475 84.0202 38.0894L84.0348 38.2347ZM73.0529 32.061H76.0163L74.9994 29.3737C74.951 29.2381 74.8832 29.0541 74.7961 28.8217C74.7089 28.5796 74.6508 28.4101 74.6218 28.3132L73.0529 32.061ZM97.7804 38.0458C97.0251 38.4235 96.2213 38.6123 95.3691 38.6123C94.6137 38.6123 93.9261 38.4961 93.3064 38.2637C91.9699 37.7698 90.8321 36.8062 89.8927 35.373C89.6506 35.0244 89.2003 34.3562 88.5417 33.3684C87.8832 32.3806 87.4571 31.7511 87.2634 31.48C86.9245 30.9473 86.6533 30.6568 86.45 30.6084V30.4631C86.4597 30.4631 86.4693 30.4631 86.479 30.4631C86.4984 30.4631 86.5178 30.4631 86.5371 30.4631C86.5565 30.4631 86.5759 30.4631 86.5952 30.4631C86.6146 30.4631 86.6388 30.4631 86.6679 30.4631C86.6969 30.4631 86.7211 30.4631 86.7405 30.4631C87.2344 30.4631 87.6895 30.3518 88.106 30.129C88.7354 29.7804 89.0502 29.1364 89.0502 28.197C89.0502 27.5095 88.8565 26.9817 88.4691 26.6137C88.0818 26.236 87.6169 26.0471 87.0746 26.0471H85.9706V34.5159C85.9706 34.7677 86.0626 34.9856 86.2466 35.1696C86.4306 35.3439 86.6485 35.4311 86.9003 35.4311H87.0891V35.5764H82.6732V35.4311H82.862C83.1041 35.4311 83.3171 35.3439 83.5011 35.1696C83.6851 34.9953 83.782 34.7823 83.7917 34.5305V26.4684C83.782 26.2166 83.6851 26.0036 83.5011 25.8293C83.3268 25.6453 83.1138 25.5533 82.862 25.5533H82.6732V25.408H87.6556C88.9049 25.408 89.8733 25.6937 90.5609 26.265C91.1032 26.7105 91.3744 27.34 91.3744 28.1535C91.3744 28.9669 91.108 29.6303 90.5754 30.1435C90.0525 30.6471 89.4521 30.8989 88.7742 30.8989C88.7161 30.8989 88.6531 30.8941 88.5853 30.8844C88.9824 31.0974 89.3116 31.3347 89.5731 31.5962C89.8443 31.8576 90.0767 32.1046 90.2704 32.337C90.4737 32.5694 90.6432 32.7776 90.7788 32.9616C90.9241 33.1359 91.1129 33.3732 91.3453 33.6734C91.5777 33.9639 91.8198 34.269 92.0716 34.5886C92.3234 34.9081 92.5994 35.2374 92.8996 35.5764C93.2095 35.9056 93.5485 36.2204 93.9165 36.5206C94.2941 36.8208 94.6767 37.0677 95.064 37.2614C95.8872 37.6778 96.7926 37.8909 97.7804 37.9006V38.0458ZM95.332 35.4311C95.5838 35.4311 95.7968 35.3439 95.9711 35.1696C96.1551 34.9856 96.252 34.7677 96.2616 34.5159V26.4248C96.2326 26.0859 96.0728 25.8341 95.7823 25.6695C95.637 25.592 95.4869 25.5533 95.332 25.5533H95.1431V25.408H99.225C99.6511 25.408 100.024 25.3741 100.344 25.3063C100.663 25.2385 100.871 25.1853 100.968 25.1465V27.6886H100.808V27.5143C100.818 27.0785 100.692 26.7299 100.431 26.4684C100.179 26.1973 99.8351 26.052 99.3993 26.0326H98.4406V30.2598H100.75C101.109 30.2501 101.404 30.129 101.636 29.8966C101.869 29.6545 101.985 29.3591 101.985 29.0105V28.8798H102.116V32.2353H101.985V32.1191C101.985 31.7608 101.869 31.4654 101.636 31.233C101.404 31.0006 101.113 30.8795 100.765 30.8699H98.4406V34.9517H101.273C101.98 34.9517 102.571 34.7484 103.045 34.3416C103.53 33.9349 103.888 33.3587 104.12 32.613H104.266L103.583 35.5764H95.1431V35.4311H95.332ZM111.048 25.5533C110.7 25.5533 110.433 25.7034 110.249 26.0036C110.162 26.1391 110.119 26.2941 110.119 26.4684V34.4143C110.119 35.7216 109.784 36.7385 109.116 37.4648C108.506 38.1233 107.789 38.4525 106.966 38.4525C106.327 38.4525 105.678 38.2734 105.02 37.9151L105.063 37.7698C105.247 37.8086 105.422 37.8279 105.586 37.8279C105.983 37.8279 106.337 37.7262 106.647 37.5229C107.509 36.9806 107.94 35.9298 107.94 34.3707V26.4684C107.93 26.1101 107.775 25.8438 107.475 25.6695C107.329 25.592 107.175 25.5533 107.01 25.5533H106.821V25.408H111.237V25.5533H111.048ZM127.62 38.2347C126.565 38.7673 125.495 38.8544 124.41 38.4961C123.258 38.1281 122.265 37.3437 121.432 36.1429C120.987 35.5037 120.604 34.7629 120.285 33.9204L119.82 32.6856H116.391L115.622 34.5159C115.573 34.6418 115.549 34.7435 115.549 34.821C115.549 34.8985 115.563 34.9856 115.593 35.0825C115.631 35.1696 115.704 35.2519 115.81 35.3294C115.927 35.3972 116.053 35.4311 116.188 35.4311H116.304V35.5764H113.196V35.4311H113.326C113.549 35.4311 113.767 35.3681 113.98 35.2423C114.203 35.1067 114.387 34.9081 114.532 34.6467L117.771 27.2528C117.394 26.4006 116.992 25.8147 116.566 25.4952C116.207 25.224 115.864 25.0884 115.534 25.0884C115.215 25.0884 114.915 25.1368 114.634 25.2337L114.605 25.0884C115.302 24.7301 115.97 24.5509 116.609 24.5509C117.403 24.5509 118.115 24.8608 118.745 25.4806C119.365 26.0907 119.912 26.972 120.386 28.1244L122.493 33.3248C123.287 35.2907 124.1 36.6416 124.933 37.3776C125.272 37.6778 125.62 37.886 125.979 38.0022C126.337 38.1184 126.637 38.1766 126.879 38.1766C127.131 38.1766 127.373 38.1475 127.606 38.0894L127.62 38.2347ZM116.638 32.061H119.602L118.585 29.3737C118.537 29.2381 118.469 29.0541 118.382 28.8217C118.294 28.5796 118.236 28.4101 118.207 28.3132L116.638 32.061Z" fill="#E4252C"/>
</g>
<path d="M42.1553 0.891052L40.877 1.18158L40.6736 1.29779L42.1553 0.891052Z" fill="#641913"/>
<path d="M20.7143 24.2202L19.407 24.5107L19.2036 24.3074C19.2269 24.2609 20.54 24.133 20.7143 24.2202Z" fill="#641913"/>
<path d="M22.9807 21.8669L21.7024 22.1575L22.051 21.4602L22.9807 21.8669Z" fill="#641913"/>
<path d="M10.5171 37.5552L9.23877 37.8457C9.26201 37.7295 10.1007 36.7514 10.5171 36.2769V37.5552Z" fill="#641913"/>
<path d="M43.9853 20.7339L42.707 21.0244C42.707 21.0825 42.6973 21.1794 42.678 21.2278C42.7942 21.251 43.9853 20.9082 43.9853 20.7339Z" fill="#641913"/>
<path d="M30.9119 35.8993L29.6626 37.8458L30.97 37.5553L30.9119 35.8993Z" fill="#641913"/>
<g filter="url(#filter2_d_90_622)">
<path d="M21.697 22.159C25.1068 15.8598 25.1152 11.1798 32.7721 8.13626C31.3063 10.9968 31.9108 9.62543 33.2607 22.7309C33.2607 24.5428 36.5181 25.2996 37.4953 24.9818C36.681 25.9353 34.3818 26.9751 35.0523 30.6679C35.8666 35.1526 33.1467 42.2578 27.4465 41.8787C25.2802 41.3883 21.0456 34.3387 26.5571 34.3387C29.4768 34.3387 29.6776 35.1526 29.6776 37.8542L31.0547 35.678C33.172 30.6998 27.7726 29.0445 23.8791 31.0185C17.4142 35.8955 21.75 43.5754 27.4465 44.8467C34.4965 45.3156 40.1556 35.1843 38.5236 30.6679C37.2389 27.1128 42.7071 22.9905 42.7071 21.0344C41.928 21.4685 38.4935 22.5271 36.7504 21.4938C35.0808 5.28505 36.5604 3.69106 40.8782 1.18158C30.5419 3.77984 23.634 9.75951 19.4169 17.5503C15.0969 15.8527 9.13031 18.801 7.69033 19.8664C10.2671 20.2033 13.0951 20.8832 14.9872 22.7309C7.82672 22.7309 -0.615986 28.7958 0.0354948 35.678C1.50131 43.2953 8.3418 47.1094 15.2221 44.0521C22.1024 40.9949 20.2645 30.3974 16.6737 29.4496C13.899 28.7173 9.99884 29.7316 9.23006 32.994V37.8543C10.6959 35.9472 13.3907 32.7241 15.9966 33.8365C19.3358 35.4938 16.6481 40.238 13.7165 41.3883C7.11608 42.421 5.41016 37.8542 5.08443 34.3387C5.08443 28.724 13.6274 24.505 19.4169 24.505C17.887 23.0111 17.7882 21.0344 15.9966 19.8664C17.7882 19.1395 18.2042 20.7864 21.697 22.159Z" fill="#E4252C"/>
</g>
<path d="M56.3184 25.5533C56.0763 25.5533 55.8681 25.6404 55.6937 25.8147C55.5194 25.9794 55.4274 26.1827 55.4177 26.4248V33.9204C55.4177 34.5692 55.4613 35.1164 55.5485 35.5618L55.5921 35.7797H55.4613L48.1256 28.7926V34.5595C48.1256 34.8016 48.2127 35.0098 48.387 35.1841C48.5614 35.3488 48.7696 35.4311 49.0117 35.4311H49.2877V35.5764H44.8862V35.4311H45.1477C45.3995 35.4311 45.6125 35.3488 45.7869 35.1841C45.9612 35.0098 46.0483 34.7968 46.0483 34.545V27.0059C46.0483 26.3667 46.0047 25.8341 45.9176 25.408L45.8885 25.1901H46.0193L53.355 32.1772V26.4394C53.3453 26.1876 53.2533 25.9794 53.079 25.8147C52.9047 25.6404 52.6965 25.5533 52.4544 25.5533H52.1929V25.408H56.5944V25.5533H56.3184ZM58.5443 28.7926C58.0698 28.3374 57.8325 27.8484 57.8325 27.3255C57.8325 26.9187 57.9632 26.5652 58.2247 26.265C58.7186 25.684 59.411 25.3935 60.302 25.3935H67.1438C67.5699 25.3838 67.9428 25.3499 68.2623 25.2918C68.5819 25.224 68.7853 25.1707 68.8724 25.132V27.6596H68.7272V27.4852C68.7272 27.0495 68.5964 26.696 68.335 26.4248C68.0735 26.1537 67.72 26.0133 67.2746 26.0036H65.3135V34.5305C65.3329 34.8791 65.4927 35.1406 65.7929 35.3149C65.9285 35.3924 66.0786 35.4311 66.2432 35.4311H66.432V35.5764H62.0161V35.4311H62.2049C62.4567 35.4311 62.6697 35.3439 62.8441 35.1696C63.0281 34.9953 63.1249 34.7871 63.1346 34.545V26.0036H60.302C59.9049 26.0036 59.5563 26.0762 59.2561 26.2215C58.646 26.512 58.3409 26.9671 58.3409 27.5869C58.3409 27.9549 58.4571 28.3326 58.6895 28.72L58.5443 28.7926ZM84.0348 38.2347C82.9792 38.7673 81.9091 38.8544 80.8245 38.4961C79.672 38.1281 78.6794 37.3437 77.8466 36.1429C77.4011 35.5037 77.0186 34.7629 76.699 33.9204L76.2342 32.6856H72.806L72.0361 34.5159C71.9877 34.6418 71.9635 34.7435 71.9635 34.821C71.9635 34.8985 71.978 34.9856 72.007 35.0825C72.0458 35.1696 72.1184 35.2519 72.2249 35.3294C72.3411 35.3972 72.467 35.4311 72.6026 35.4311H72.7188V35.5764H69.6102V35.4311H69.7409C69.9637 35.4311 70.1816 35.3681 70.3946 35.2423C70.6174 35.1067 70.8014 34.9081 70.9466 34.6467L74.186 27.2528C73.8083 26.4006 73.4064 25.8147 72.9803 25.4952C72.622 25.224 72.2782 25.0884 71.9489 25.0884C71.6294 25.0884 71.3291 25.1368 71.0483 25.2337L71.0193 25.0884C71.7165 24.7301 72.3847 24.5509 73.0239 24.5509C73.818 24.5509 74.5298 24.8608 75.1592 25.4806C75.779 26.0907 76.3262 26.972 76.8007 28.1244L78.907 33.3248C79.7011 35.2907 80.5146 36.6416 81.3474 37.3776C81.6864 37.6778 82.035 37.886 82.3933 38.0022C82.7516 38.1184 83.0518 38.1766 83.2939 38.1766C83.5457 38.1766 83.7878 38.1475 84.0202 38.0894L84.0348 38.2347ZM73.0529 32.061H76.0163L74.9994 29.3737C74.951 29.2381 74.8832 29.0541 74.7961 28.8217C74.7089 28.5796 74.6508 28.4101 74.6218 28.3132L73.0529 32.061ZM97.7804 38.0458C97.0251 38.4235 96.2213 38.6123 95.3691 38.6123C94.6137 38.6123 93.9261 38.4961 93.3064 38.2637C91.9699 37.7698 90.8321 36.8062 89.8927 35.373C89.6506 35.0244 89.2003 34.3562 88.5417 33.3684C87.8832 32.3806 87.4571 31.7511 87.2634 31.48C86.9245 30.9473 86.6533 30.6568 86.45 30.6084V30.4631C86.4597 30.4631 86.4693 30.4631 86.479 30.4631C86.4984 30.4631 86.5178 30.4631 86.5371 30.4631C86.5565 30.4631 86.5759 30.4631 86.5952 30.4631C86.6146 30.4631 86.6388 30.4631 86.6679 30.4631C86.6969 30.4631 86.7211 30.4631 86.7405 30.4631C87.2344 30.4631 87.6895 30.3518 88.106 30.129C88.7354 29.7804 89.0502 29.1364 89.0502 28.197C89.0502 27.5095 88.8565 26.9817 88.4691 26.6137C88.0818 26.236 87.6169 26.0471 87.0746 26.0471H85.9706V34.5159C85.9706 34.7677 86.0626 34.9856 86.2466 35.1696C86.4306 35.3439 86.6485 35.4311 86.9003 35.4311H87.0891V35.5764H82.6732V35.4311H82.862C83.1041 35.4311 83.3171 35.3439 83.5011 35.1696C83.6851 34.9953 83.782 34.7823 83.7917 34.5305V26.4684C83.782 26.2166 83.6851 26.0036 83.5011 25.8293C83.3268 25.6453 83.1138 25.5533 82.862 25.5533H82.6732V25.408H87.6556C88.9049 25.408 89.8733 25.6937 90.5609 26.265C91.1032 26.7105 91.3744 27.34 91.3744 28.1535C91.3744 28.9669 91.108 29.6303 90.5754 30.1435C90.0525 30.6471 89.4521 30.8989 88.7742 30.8989C88.7161 30.8989 88.6531 30.8941 88.5853 30.8844C88.9824 31.0974 89.3116 31.3347 89.5731 31.5962C89.8443 31.8576 90.0767 32.1046 90.2704 32.337C90.4737 32.5694 90.6432 32.7776 90.7788 32.9616C90.9241 33.1359 91.1129 33.3732 91.3453 33.6734C91.5777 33.9639 91.8198 34.269 92.0716 34.5886C92.3234 34.9081 92.5994 35.2374 92.8996 35.5764C93.2095 35.9056 93.5485 36.2204 93.9165 36.5206C94.2941 36.8208 94.6767 37.0677 95.064 37.2614C95.8872 37.6778 96.7926 37.8909 97.7804 37.9006V38.0458ZM95.332 35.4311C95.5838 35.4311 95.7968 35.3439 95.9711 35.1696C96.1551 34.9856 96.252 34.7677 96.2616 34.5159V26.4248C96.2326 26.0859 96.0728 25.8341 95.7823 25.6695C95.637 25.592 95.4869 25.5533 95.332 25.5533H95.1431V25.408H99.225C99.6511 25.408 100.024 25.3741 100.344 25.3063C100.663 25.2385 100.871 25.1853 100.968 25.1465V27.6886H100.808V27.5143C100.818 27.0785 100.692 26.7299 100.431 26.4684C100.179 26.1973 99.8351 26.052 99.3993 26.0326H98.4406V30.2598H100.75C101.109 30.2501 101.404 30.129 101.636 29.8966C101.869 29.6545 101.985 29.3591 101.985 29.0105V28.8798H102.116V32.2353H101.985V32.1191C101.985 31.7608 101.869 31.4654 101.636 31.233C101.404 31.0006 101.113 30.8795 100.765 30.8699H98.4406V34.9517H101.273C101.98 34.9517 102.571 34.7484 103.045 34.3416C103.53 33.9349 103.888 33.3587 104.12 32.613H104.266L103.583 35.5764H95.1431V35.4311H95.332ZM111.048 25.5533C110.7 25.5533 110.433 25.7034 110.249 26.0036C110.162 26.1391 110.119 26.2941 110.119 26.4684V34.4143C110.119 35.7216 109.784 36.7385 109.116 37.4648C108.506 38.1233 107.789 38.4525 106.966 38.4525C106.327 38.4525 105.678 38.2734 105.02 37.9151L105.063 37.7698C105.247 37.8086 105.422 37.8279 105.586 37.8279C105.983 37.8279 106.337 37.7262 106.647 37.5229C107.509 36.9806 107.94 35.9298 107.94 34.3707V26.4684C107.93 26.1101 107.775 25.8438 107.475 25.6695C107.329 25.592 107.175 25.5533 107.01 25.5533H106.821V25.408H111.237V25.5533H111.048ZM127.62 38.2347C126.565 38.7673 125.495 38.8544 124.41 38.4961C123.258 38.1281 122.265 37.3437 121.432 36.1429C120.987 35.5037 120.604 34.7629 120.285 33.9204L119.82 32.6856H116.391L115.622 34.5159C115.573 34.6418 115.549 34.7435 115.549 34.821C115.549 34.8985 115.563 34.9856 115.593 35.0825C115.631 35.1696 115.704 35.2519 115.81 35.3294C115.927 35.3972 116.053 35.4311 116.188 35.4311H116.304V35.5764H113.196V35.4311H113.326C113.549 35.4311 113.767 35.3681 113.98 35.2423C114.203 35.1067 114.387 34.9081 114.532 34.6467L117.771 27.2528C117.394 26.4006 116.992 25.8147 116.566 25.4952C116.207 25.224 115.864 25.0884 115.534 25.0884C115.215 25.0884 114.915 25.1368 114.634 25.2337L114.605 25.0884C115.302 24.7301 115.97 24.5509 116.609 24.5509C117.403 24.5509 118.115 24.8608 118.745 25.4806C119.365 26.0907 119.912 26.972 120.386 28.1244L122.493 33.3248C123.287 35.2907 124.1 36.6416 124.933 37.3776C125.272 37.6778 125.62 37.886 125.979 38.0022C126.337 38.1184 126.637 38.1766 126.879 38.1766C127.131 38.1766 127.373 38.1475 127.606 38.0894L127.62 38.2347ZM116.638 32.061H119.602L118.585 29.3737C118.537 29.2381 118.469 29.0541 118.382 28.8217C118.294 28.5796 118.236 28.4101 118.207 28.3132L116.638 32.061Z" fill="#E4252C"/>
<defs>
<filter id="filter0_d_90_622" x="0" y="0.891055" width="43.9853" height="44.2178" filterUnits="userSpaceOnUse" color-interpolation-filters="sRGB">
<feFlood flood-opacity="0" result="BackgroundImageFix"/>
<feColorMatrix in="SourceAlpha" type="matrix" values="0 0 0 0 0 0 0 0 0 0 0 0 0 0 0 0 0 0 127 0" result="hardAlpha"/>
<feOffset dx="1.27831" dy="-0.290525"/>
<feComposite in2="hardAlpha" operator="out"/>
<feColorMatrix type="matrix" values="0 0 0 0 0.392157 0 0 0 0 0.0980392 0 0 0 0 0.0745098 0 0 0 1 0"/>
<feBlend mode="normal" in2="BackgroundImageFix" result="effect1_dropShadow_90_622"/>
<feBlend mode="normal" in="SourceGraphic" in2="effect1_dropShadow_90_622" result="shape"/>
</filter>
<filter id="filter1_d_90_622" x="44.8862" y="24.2604" width="84.0124" height="14.7731" filterUnits="userSpaceOnUse" color-interpolation-filters="sRGB">
<feFlood flood-opacity="0" result="BackgroundImageFix"/>
<feColorMatrix in="SourceAlpha" type="matrix" values="0 0 0 0 0 0 0 0 0 0 0 0 0 0 0 0 0 0 127 0" result="hardAlpha"/>
<feOffset dx="1.27831" dy="-0.290525"/>
<feComposite in2="hardAlpha" operator="out"/>
<feColorMatrix type="matrix" values="0 0 0 0 0.392157 0 0 0 0 0.0980392 0 0 0 0 0.0745098 0 0 0 1 0"/>
<feBlend mode="normal" in2="BackgroundImageFix" result="effect1_dropShadow_90_622"/>
<feBlend mode="normal" in="SourceGraphic" in2="effect1_dropShadow_90_622" result="shape"/>
</filter>
<filter id="filter2_d_90_622" x="0" y="0.891055" width="43.9853" height="44.2178" filterUnits="userSpaceOnUse" color-interpolation-filters="sRGB">
<feFlood flood-opacity="0" result="BackgroundImageFix"/>
<feColorMatrix in="SourceAlpha" type="matrix" values="0 0 0 0 0 0 0 0 0 0 0 0 0 0 0 0 0 0 127 0" result="hardAlpha"/>
<feOffset dx="1.27831" dy="-0.290525"/>
<feComposite in2="hardAlpha" operator="out"/>
<feColorMatrix type="matrix" values="0 0 0 0 0.392157 0 0 0 0 0.0980392 0 0 0 0 0.0745098 0 0 0 1 0"/>
<feBlend mode="normal" in2="BackgroundImageFix" result="effect1_dropShadow_90_622"/>
<feBlend mode="normal" in="SourceGraphic" in2="effect1_dropShadow_90_622" result="shape"/>
</filter>
</defs>
</svg>
