<svg width="55" height="57" viewBox="0 0 55 57" fill="none" xmlns="http://www.w3.org/2000/svg">
<path d="M27.9198 27.3677C32.3075 19.2619 32.3183 13.2396 42.1713 9.32318C40.2851 13.0042 41.063 11.2395 42.8 28.1036C42.8 30.4352 46.9916 31.409 48.2491 31C47.2012 32.227 44.2426 33.5651 45.1054 38.317C46.1533 44.0879 42.6533 53.231 35.3182 52.7431C32.5306 52.112 27.0815 43.0405 34.1738 43.0405C37.9309 43.0405 38.1893 44.0879 38.1893 47.5644L39.9613 44.764C42.6859 38.3581 35.7378 36.228 30.7277 38.7681C22.4087 45.0439 27.988 54.9264 35.3182 56.5623C44.3902 57.1657 51.6724 44.1288 49.5723 38.317C47.9192 33.7423 54.9557 28.4377 54.9557 25.9205C53.9531 26.4792 49.5336 27.8414 47.2905 26.5117C45.1421 5.65423 47.0461 3.60309 52.6022 0.373871C39.3014 3.71733 30.4124 11.412 24.9857 21.4372C19.4268 19.2528 11.7489 23.0466 9.89595 24.4175C13.2118 24.8512 16.8508 25.726 19.2856 28.1036C10.0714 28.1036 -0.792654 35.908 0.0456748 44.764C1.9319 54.566 10.7343 59.474 19.5879 55.5399C28.4415 51.6058 26.0764 37.9689 21.4557 36.7493C17.8853 35.8069 12.8666 37.1121 11.8773 41.3103V47.5644C13.7635 45.1104 17.2313 40.9629 20.5845 42.3944C24.8814 44.5269 21.4229 50.6319 17.6504 52.112C9.157 53.441 6.96181 47.5644 6.54266 43.0405C6.54266 35.8156 17.5357 30.3865 24.9857 30.3865C23.0171 28.4642 22.8899 25.9205 20.5845 24.4175C22.8899 23.4822 23.4253 25.6015 27.9198 27.3677Z" fill="white"/>
</svg>
