<?xml version="1.0" encoding="UTF-8"?>
<!DOCTYPE svg PUBLIC "-//W3C//DTD SVG 1.1//EN" "http://www.w3.org/Graphics/SVG/1.1/DTD/svg11.dtd">
<!-- Creator: CorelDRAW X7 -->
<svg xmlns="http://www.w3.org/2000/svg" xml:space="preserve" width="11.811in" height="11.811in" version="1.1" style="shape-rendering:geometricPrecision; text-rendering:geometricPrecision; image-rendering:optimizeQuality; fill-rule:evenodd; clip-rule:evenodd"
viewBox="0 0 11811 11811"
 xmlns:xlink="http://www.w3.org/1999/xlink">
 <defs>
  <style type="text/css">
   <![CDATA[
    .fil1 {fill:black}
    .fil0 {fill:black}
   ]]>
  </style>
 </defs>
 <g id="Layer_x0020_1">
  <metadata id="CorelCorpID_0Corel-Layer"/>
  <path class="fil0" d="M6975 2657c-409,524 -663,1166 -712,1836l-5 68c236,-204 529,-345 855,-396 -20,-61 -39,-122 -55,-183 -113,-424 -142,-881 -83,-1325zm-853 3107c282,960 1104,1108 1780,543 -607,680 -1669,487 -1780,-543zm1951 -1313c-484,-617 -592,-1312 -636,-1990 -57,779 174,1462 582,2086 466,-27 914,-326 1106,-708 -231,312 -661,620 -1052,612zm-2236 -965c-246,-30 -488,-6 -728,54 275,-30 537,-12 786,55 136,-423 346,-799 650,-1112 -302,262 -555,579 -708,1003zm-1780 -26c349,-43 577,130 752,398 -169,-332 -360,-490 -752,-398zm1027 793l369 247 -369 -170 -1213 340 1213 -417zm29 1358c58,-180 116,-359 175,-538 -89,173 -178,346 -267,519 150,891 -375,1402 -1140,1459 843,5 1336,-515 1232,-1440zm-966 -270c283,161 446,389 456,701 13,435 -350,788 -777,794 -426,7 -802,-361 -789,-796 12,-368 225,-622 566,-740l1975 -684c-165,-74 -331,-147 -497,-220l-1223 361c-1377,406 -1403,2168 -4,2248 849,-36 1285,-649 1101,-1435l322 -620 -1130 391zm-376 -1778c428,-23 783,143 1034,400 -166,-377 -504,-571 -1034,-400zm1064 79c549,32 967,376 1154,831 67,-918 489,-1789 1162,-2414l0 0c-661,466 -1037,1032 -1181,1680 -403,-179 -777,-183 -1135,-97zm2704 -1896c-330,634 -407,1442 -215,2165 90,342 247,662 447,952 10,15 20,29 30,43l0 0c339,347 440,729 363,1058 -130,552 -691,854 -1198,810 -590,-51 -1108,-570 -789,-1707 -156,237 -243,522 -235,828 22,800 681,1417 1455,1404 788,-14 1412,-627 1425,-1432 6,-377 -141,-720 -393,-997 539,-184 886,-648 932,-1184l-13 -346c-107,802 -745,1312 -1375,1289 -621,-874 -739,-1821 -434,-2883zm-142 175c-782,620 -1280,1558 -1353,2556l-17 233 -89 -216c-141,-343 -408,-602 -742,-723 257,198 413,495 437,841l3 42 -2015 698c-320,111 -518,345 -529,689 -12,400 335,746 733,740 398,-5 735,-335 723,-738 -10,-301 -171,-508 -428,-654l-106 -60 1285 -445 23 35c176,260 267,585 263,898 -13,878 -739,1577 -1615,1564 -476,-7 -923,-230 -1220,-602 -112,-140 -200,-298 -258,-467 -60,-175 -88,-359 -82,-543 18,-538 293,-1062 759,-1341 101,-60 210,-108 323,-141l1206 -350c-108,-96 -231,-173 -365,-228 -177,-73 -367,-102 -559,-91l-149 8 109 -103c171,-163 370,-292 591,-377 208,-79 428,-115 650,-108 144,5 287,26 425,65 583,-1168 1671,-1957 2965,-2142l130 -18 -78 106c-304,412 -473,899 -483,1412 -10,463 111,928 349,1326 405,42 790,-143 1020,-478l78 -115 22 138c104,675 -253,1310 -880,1562 229,276 360,611 354,974 -14,827 -653,1471 -1479,1485 -819,15 -1488,-641 -1511,-1457 -5,-191 26,-381 92,-560 64,-173 160,-332 283,-470 255,-288 609,-464 992,-497l39 -3 16 35c48,105 101,207 157,308l57 102 -115 -21c-467,-84 -884,261 -884,737 1,418 344,740 758,735 207,-2 408,-93 548,-246 129,-140 193,-321 179,-512 -19,-268 -137,-397 -283,-610 -204,-295 -363,-621 -455,-969 -49,-184 -81,-372 -96,-562 -22,-284 -7,-573 46,-853 38,-202 96,-400 176,-589zm-3530 3578l-174 60c-234,81 -373,236 -381,489 -8,274 237,517 510,513 275,-4 515,-231 506,-511 -7,-223 -128,-362 -317,-469l-144 -82zm1862 815c-227,755 -936,1300 -1762,1287 -990,-15 -1809,-844 -1776,-1840 25,-754 500,-1470 1239,-1685l700 -204c-286,-77 -774,-98 -1089,6 358,-620 1033,-1091 1942,-1060 101,4 202,15 301,33 862,-1565 2224,-2045 3700,-2200 -630,716 -1193,1745 -569,2921 569,-10 944,-520 1099,-960 142,917 304,1778 -664,2364 163,268 252,572 247,896 -16,945 -751,1685 -1696,1701 -796,15 -1470,-524 -1672,-1259zm1831 -1273l-191 -35c-332,-60 -625,182 -625,521 0,295 244,519 535,515 279,-3 532,-233 511,-521 -15,-205 -118,-321 -230,-480z"/>
  <g id="_290523576">
   <path class="fil1" d="M2557 8074l-404 0c-8,-2 -17,-3 -25,-4 -8,0 -16,-1 -23,-1l-48 0c-83,0 -150,23 -199,68 -49,46 -73,102 -73,169 0,57 20,111 61,160 41,50 94,73 158,71l40 -3 37 -13c12,-1 23,-11 35,-28 -82,-16 -123,-72 -123,-167 0,-41 13,-82 38,-123 30,-36 68,-55 111,-55 71,0 106,30 106,90l-217 1220c-36,123 -89,204 -161,245l351 0c-60,-33 -97,-72 -111,-116 -3,-14 -6,-36 -7,-63 -2,-28 -2,-63 -2,-104l145 -811c90,0 155,102 193,307l142 787c28,158 98,237 211,237 49,0 95,-19 138,-57 33,-38 48,-82 44,-131 -16,13 -35,19 -57,19 -38,0 -62,-22 -71,-68l-289 -1629zm-298 456l17 -83c9,-41 13,-66 13,-75l27 -153 17 87c8,41 11,63 11,66 3,16 6,31 9,44 3,13 5,25 7,35l11 79 -112 0zm2048 1347l-39 0c-38,0 -72,-26 -101,-77 -19,-19 -37,-51 -53,-97l-267 -730 0 -665c0,-100 37,-179 111,-234l-289 0c75,55 112,133 112,232l0 485 -263 -717 -373 0c-9,-2 -17,-3 -25,-4 -8,0 -16,-1 -23,-1l-49 0c-83,0 -149,23 -198,68 -49,46 -74,102 -74,169 0,57 21,111 62,160 41,50 93,73 158,71l39 -3 37 -13c12,-1 24,-11 35,-28 -81,-16 -122,-72 -122,-167 0,-41 12,-82 37,-123 31,-36 68,-55 112,-55 70,0 105,30 105,90l0 1231c0,104 -37,182 -112,234l290 0c-73,-55 -110,-133 -110,-234l0 -1198 553 1432c70,180 165,270 285,270 39,0 73,-8 101,-24 33,-23 54,-47 61,-72zm-691 -1847c193,-50 393,-75 599,-75l0 1584c0,15 -3,33 -9,55 -16,60 -38,96 -68,109l410 0c-51,-29 -76,-84 -76,-164l0 -1579c215,0 414,23 599,70l-106 -136 -1243 0 -106 136zm1748 44l-403 0c-9,-2 -17,-3 -25,-4 -8,0 -16,-1 -23,-1l-49 0c-83,0 -149,23 -198,68 -49,46 -74,102 -74,169 0,57 21,111 62,160 41,50 93,73 158,71l39 -3 37 -13c12,-1 24,-11 36,-28 -82,-16 -123,-72 -123,-167 0,-41 12,-82 37,-123 31,-36 68,-55 112,-55 70,0 105,30 105,90l-217 1220c-35,123 -88,204 -160,245l351 0c-60,-33 -97,-72 -112,-116 -3,-14 -5,-36 -7,-63 -1,-28 -2,-63 -2,-104l145 -811c91,0 155,102 193,307l143 787c27,158 98,237 210,237 50,0 96,-19 138,-57 34,-38 49,-82 44,-131 -16,13 -35,19 -57,19 -38,0 -61,-22 -70,-68l-290 -1629zm-298 456l18 -83c8,-41 13,-66 13,-75l26 -153 18 87c7,41 11,63 11,66 3,16 6,31 8,44 3,13 6,25 7,35l11 79 -112 0zm1566 1173c16,62 44,114 83,158 46,53 97,79 154,79 51,0 96,-19 134,-57 36,-36 52,-80 46,-131 -18,13 -31,19 -40,19 -32,0 -57,-18 -76,-54 -25,-36 -47,-89 -66,-161 -9,-29 -22,-87 -40,-175l-103 -520c-19,-95 -28,-156 -28,-184l2 -123c-72,16 -132,24 -180,24 -13,0 -27,0 -43,-2 -15,-1 -31,-4 -49,-7 105,-20 198,-56 279,-107 81,-53 122,-124 122,-213 0,-52 -19,-95 -59,-127 -39,-32 -93,-48 -160,-48l-612 0c-9,-2 -17,-3 -25,-4 -8,0 -16,-1 -23,-1l-48 0c-84,0 -150,23 -199,68 -49,46 -73,102 -73,169 0,57 20,111 61,160 41,50 94,73 158,71l39 -3 38 -13c11,-1 23,-11 35,-28 -82,-16 -123,-72 -123,-167 0,-41 12,-82 37,-123 31,-36 68,-55 112,-55 70,0 105,30 105,90l0 1301c0,10 0,20 0,28 0,8 0,14 -2,20 -11,62 -36,100 -74,116l410 0c-51,-29 -77,-84 -77,-164l0 -921c38,6 67,36 88,92 6,13 15,59 28,138l73 390c20,106 38,197 54,273 17,77 30,141 42,192zm-285 -1465c0,-63 29,-94 86,-94 35,0 62,13 83,41 20,27 31,60 31,99 0,52 -16,100 -46,145 -36,53 -76,79 -123,79 -21,-4 -31,-15 -31,-31l0 -239zm1261 441c0,-47 24,-70 70,-70 57,7 103,59 136,156 27,79 40,140 40,184l13 0 0 -415 -259 0 0 -302c0,-50 24,-75 70,-75 98,0 171,41 220,123 39,69 59,155 59,259l11 0 0 -465 -711 0c-9,-2 -17,-3 -25,-4 -8,0 -16,-1 -23,-1l-48 0c-84,0 -150,23 -199,68 -49,46 -73,102 -73,169 0,57 20,111 61,160 41,50 94,73 158,71l40 -3 37 -13c12,-1 23,-11 35,-28 -82,-16 -123,-72 -123,-167 0,-41 13,-82 37,-123 31,-36 68,-55 112,-55 70,0 106,30 106,90l0 1433c0,26 -6,57 -18,92 -16,39 -36,63 -59,72l26 -9 26 -2c19,-4 44,-7 75,-7 75,0 136,11 184,31l220 99c144,64 248,96 311,96 57,0 105,-14 144,-41 38,-28 58,-69 58,-123 0,-35 -13,-74 -37,-116 -15,49 -41,81 -78,94 -38,13 -87,20 -148,20 -93,0 -242,-33 -448,-99l0 -1099z"/>
   <path class="fil1" d="M8673 9703l0 -1465c0,-83 26,-138 77,-164l-410 0c51,20 76,75 76,164l0 1481c0,1484 -3409,1331 -4462,824 -379,-183 -404,-522 -46,-565 -332,-246 -898,393 -55,804 1275,622 4820,613 4820,-1079z"/>
   <path class="fil1" d="M9605 8074l-404 0c-8,-2 -17,-3 -25,-4 -8,0 -16,-1 -23,-1l-48 0c-83,0 -150,23 -199,68 -49,46 -73,102 -73,169 0,57 20,111 61,160 41,50 94,73 158,71l40 -3 37 -13c12,-1 23,-11 35,-28 -82,-16 -123,-72 -123,-167 0,-41 13,-82 38,-123 30,-36 68,-55 111,-55 71,0 106,30 106,90l-217 1220c-35,123 -89,204 -161,245l351 0c-60,-33 -97,-72 -111,-116 -3,-14 -6,-36 -7,-63 -1,-28 -2,-63 -2,-104l145 -811c90,0 155,102 193,307l142 787c28,158 98,237 211,237 49,0 95,-19 138,-57 33,-38 48,-82 44,-131 -16,13 -35,19 -57,19 -38,0 -62,-22 -70,-68l-290 -1629zm-298 456l17 -83c9,-41 13,-66 13,-75l27 -153 17 87c8,41 11,63 11,66 3,16 6,31 9,44 3,13 5,25 7,35l11 79 -112 0z"/>
   <path class="fil0" d="M8547 7651c61,0 111,83 111,185 0,101 -50,184 -111,184 -62,0 -112,-83 -112,-184 0,-102 50,-185 112,-185z"/>
  </g>
 </g>
</svg>
