<?xml version="1.0" encoding="UTF-8"?>
<!DOCTYPE svg PUBLIC "-//W3C//DTD SVG 1.1//EN" "http://www.w3.org/Graphics/SVG/1.1/DTD/svg11.dtd">
<!-- Creator: CorelDRAW X7 -->
<svg xmlns="http://www.w3.org/2000/svg" xml:space="preserve" width="11.811in" height="11.811in" version="1.1" style="shape-rendering:geometricPrecision; text-rendering:geometricPrecision; image-rendering:optimizeQuality; fill-rule:evenodd; clip-rule:evenodd"
viewBox="0 0 11811 11811"
 xmlns:xlink="http://www.w3.org/1999/xlink">
 <defs>
  <style type="text/css">
   <![CDATA[
    .fil0 {fill:black}
    .fil2 {fill:#C40000}
    .fil1 {fill:red}
   ]]>
  </style>
 </defs>
 <g id="Layer_x0020_1">
  <metadata id="CorelCorpID_0Corel-Layer"/>
  <g id="_292481480">
   <path class="fil0" d="M9291 3990c-19,-56 -29,-115 -29,-170 0,-172 94,-391 294,-391 201,0 295,219 295,391 0,55 -10,114 -29,170 226,0 453,0 679,0l584 0 375 2111c35,200 131,138 177,-24 46,186 71,400 -70,560l-6 6 -6 6c-79,71 -174,113 -281,113 -214,0 -334,-138 -393,-315l-1017 0c-18,208 -76,407 -176,594 -581,1075 -2342,1321 -3435,1340 -554,9 -1119,-30 -1665,-124 -442,-75 -926,-195 -1331,-392 -334,-163 -708,-459 -664,-876 29,-281 263,-522 548,-541 4,-1 7,-1 11,-1l-856 0c-11,70 -42,134 -91,190l-6 6 -6 6c-79,71 -174,113 -281,113 -214,0 -334,-138 -393,-315l-1381 0c274,-100 538,-227 620,-506l187 -1048 -73 4c-131,6 -246,-45 -329,-146 -72,-88 -115,-191 -115,-306 0,-130 50,-243 145,-332 100,-92 228,-129 363,-129l64 0c14,0 29,1 44,2 10,1 21,3 31,4l647 0 52 292c120,-315 407,-292 674,-292l442 0 185 -239 1796 0 185 239 396 0 81 457c0,-1 0,-1 0,-2 0,-130 49,-243 144,-332 172,-158 355,-123 559,-123l745 0c110,0 218,26 305,97 17,14 33,29 47,45 6,-6 13,-12 19,-19 180,-166 370,-123 591,-123l1348 0zm579 713l0 1532 108 -61c75,-43 119,-152 142,-233l187 -1048 -72 4c-131,6 -246,-45 -330,-146 -12,-16 -24,-32 -35,-48zm-936 -549l0 746 -134 0 0 545 -310 0 0 -146c0,-49 -17,-114 -34,-166l0 1160c415,147 781,222 781,-309l0 -1629c0,-17 -2,-67 -13,-84l-290 -117zm121 2740c-23,3 -46,5 -69,5 -146,0 -343,-82 -474,-142l-290 -130c-157,-65 -297,-17 -445,33l-70 -197c-35,175 -203,299 -379,299 -193,0 -343,-149 -418,-315l-885 0c-30,186 -197,315 -384,315 -214,0 -334,-138 -393,-315l-1146 0 -37 125c-22,75 -76,132 -138,175l-5 4 -5 3c-64,36 -135,51 -208,51 -43,0 -83,-5 -121,-16l-177 21c-65,8 -179,35 -203,108 -16,50 12,110 39,151 63,94 172,167 272,215 340,164 775,263 1145,327 508,89 1034,132 1550,133 597,1 1247,-53 1820,-227 365,-111 787,-300 1021,-623zm-5819 -444c0,-1 -1,-2 -1,-3l-34 0c11,1 23,2 35,3zm4048 -1752c-11,12 -24,23 -37,34l-3 206c1,210 127,681 172,906 15,77 29,149 50,224 55,207 190,202 217,27 39,80 28,193 31,282 81,-36 109,-47 109,-177l0 -1341c-12,5 -24,9 -36,13l-60 21 -75 4c-131,6 -246,-45 -329,-146 -14,-17 -27,-35 -39,-53zm-1724 -99l258 1455c31,173 81,217 186,23l12 139c77,-32 126,-38 132,-223 12,-329 -1,-1017 -1,-1134 -238,114 -501,-23 -587,-260zm-1271 171l0 1312c0,26 2,77 29,92l13 8 14 -8c75,-43 119,-152 142,-233l187 -1048 -72 4c-123,5 -231,-39 -313,-127zm-633 -597l-107 80c-66,50 -90,114 -90,195l0 857 197 538 0 -1670zm-457 2193c-1,-4 -3,-8 -5,-13l-452 -1170 0 806c0,81 23,146 88,196l288 218 81 -37zm-916 -192c59,-46 77,-110 77,-185l0 -1130c-166,79 -381,36 -500,-108 -1,-2 -2,-3 -3,-5l259 1461 159 -130 8 97zm-796 146l-188 -1039c-6,-33 -14,-69 -23,-105l-136 762c0,39 1,78 3,116 1,17 2,36 4,53 14,27 56,54 79,66l261 147zm3729 0l-188 -1039c-6,-33 -13,-69 -23,-105l-136 762c0,39 1,78 3,116 1,17 2,36 4,53 14,27 56,54 79,66l261 147zm5633 0l-188 -1039c-6,-33 -13,-69 -23,-105l-136 762c0,39 1,78 3,116 1,17 2,36 4,53 14,27 56,54 79,66l261 147z"/>
   <g>
    <path class="fil1" d="M1600 4136l-536 0c-12,-2 -23,-3 -34,-4 -10,-1 -21,-2 -30,-2l-64 0c-111,0 -199,30 -264,91 -65,60 -98,135 -98,224 0,76 28,147 82,213 54,66 124,97 210,93l52 -3 50 -17c15,-2 31,-15 46,-38 -108,-22 -163,-95 -163,-222 0,-54 17,-109 50,-163 40,-48 90,-73 148,-73 94,0 140,40 140,120l-288 1620c-47,163 -118,271 -213,326l466 0c-79,-45 -129,-96 -148,-155 -4,-19 -7,-47 -9,-84 -2,-37 -3,-83 -3,-137l192 -1078c121,0 206,136 257,408l189 1046c37,210 130,315 280,315 66,0 127,-26 183,-76 45,-51 64,-109 58,-175 -21,17 -46,26 -75,26 -51,0 -82,-30 -94,-90l-384 -2165zm-396 606l23 -111c12,-54 17,-87 17,-99l35 -204 24 117c9,54 14,84 14,87 4,22 8,41 12,59 4,17 7,33 9,46l14 105 -148 0zm2721 1789l-53 0c-50,0 -95,-34 -134,-102 -25,-25 -48,-68 -70,-128l-355 -970 0 -883c0,-134 50,-238 149,-312l-385 0c99,74 149,177 149,309l0 644 -350 -953 -495 0c-12,-2 -23,-3 -34,-4 -10,-1 -21,-2 -30,-2l-64 0c-111,0 -199,30 -264,91 -65,60 -98,135 -98,224 0,76 27,147 82,213 54,66 124,97 210,93l52 -3 50 -17c15,-2 31,-15 46,-38 -109,-22 -163,-95 -163,-222 0,-54 17,-109 50,-163 40,-48 90,-73 148,-73 93,0 140,40 140,120l0 1634c0,138 -50,242 -149,312l385 0c-97,-74 -146,-178 -146,-312l0 -1591 734 1903c94,239 220,358 379,358 53,0 97,-10 134,-32 45,-31 72,-63 82,-96zm-918 -2453c256,-66 522,-99 795,-99l0 2103c0,20 -3,44 -11,73 -22,80 -52,128 -91,146l545 0c-68,-39 -102,-112 -102,-219l0 -2097c286,0 551,31 796,93l-140 -181 -1652 0 -140 181zm2322 58l-536 0c-12,-2 -23,-3 -33,-4 -11,-1 -21,-2 -31,-2l-64 0c-111,0 -199,30 -264,91 -65,60 -97,135 -97,224 0,76 27,147 81,213 55,66 124,97 210,93l52 -3 50 -17c15,-2 31,-15 46,-38 -108,-22 -163,-95 -163,-222 0,-54 17,-109 50,-163 41,-48 90,-73 148,-73 94,0 140,40 140,120l-288 1620c-47,163 -118,271 -213,326l466 0c-79,-45 -129,-96 -148,-155 -4,-19 -7,-47 -9,-84 -2,-37 -3,-83 -3,-137l192 -1078c121,0 206,136 257,408l189 1046c37,210 130,315 280,315 66,0 127,-26 183,-76 45,-51 64,-109 59,-175 -22,17 -47,26 -76,26 -51,0 -82,-30 -93,-90l-385 -2165zm-396 606l23 -111c12,-54 18,-87 18,-99l35 -204 23 117c10,54 14,84 14,87 4,22 8,41 12,59 4,17 7,33 9,46l14 105 -148 0zm2080 1559c21,81 58,151 111,210 60,70 128,105 204,105 68,0 127,-26 177,-76 49,-49 69,-107 62,-175 -24,17 -41,26 -53,26 -43,0 -77,-24 -102,-73 -33,-46 -62,-117 -87,-212 -12,-39 -29,-117 -53,-233l-137 -691c-25,-126 -37,-208 -37,-245l2 -163c-95,22 -174,32 -238,32 -18,0 -37,-1 -57,-3 -21,-2 -43,-4 -66,-8 140,-28 263,-75 370,-143 109,-70 163,-164 163,-283 0,-70 -26,-126 -78,-169 -53,-42 -124,-64 -213,-64l-813 0c-11,-2 -23,-3 -33,-4 -11,-1 -21,-2 -31,-2l-64 0c-111,0 -199,30 -264,91 -65,60 -97,135 -97,224 0,76 27,147 81,213 55,66 125,97 210,93l52 -3 50 -17c16,-2 31,-15 47,-38 -109,-22 -164,-95 -164,-222 0,-54 17,-109 50,-163 41,-48 90,-73 149,-73 93,0 139,40 139,120l0 1727c0,14 0,27 0,38 0,10 -1,19 -2,26 -16,82 -49,134 -100,155l545 0c-68,-39 -102,-112 -102,-219l0 -1223c51,8 90,48 117,122 8,18 20,79 38,184l96 518c27,140 51,261 73,363 21,102 40,187 55,255zm-379 -1946c0,-84 38,-126 114,-126 47,0 83,18 111,54 27,36 40,80 40,133 0,68 -20,132 -61,192 -46,70 -101,105 -163,105 -27,-6 -41,-19 -41,-41l0 -317zm1676 585c0,-62 31,-93 93,-93 75,10 136,79 180,207 35,105 53,186 53,245l17 0 0 -551 -343 0 0 -402c0,-66 31,-99 93,-99 130,0 227,54 291,163 53,91 79,206 79,344l14 0 0 -618 -944 0c-11,-2 -22,-3 -33,-4 -11,-1 -21,-2 -31,-2l-64 0c-111,0 -198,30 -263,91 -66,60 -98,135 -98,224 0,76 27,147 81,213 55,66 125,97 210,93l53 -3 49 -17c16,-2 31,-15 47,-38 -109,-22 -163,-95 -163,-222 0,-54 16,-109 49,-163 41,-48 91,-73 149,-73 93,0 140,40 140,120l0 1902c0,35 -8,76 -24,123 -21,52 -47,84 -78,96l35 -12 35 -3c25,-6 58,-9 99,-9 99,0 180,14 244,41l292 131c192,86 330,128 413,128 76,0 140,-18 191,-55 52,-37 77,-91 77,-163 0,-47 -16,-98 -49,-154 -19,66 -54,107 -103,125 -50,17 -116,26 -197,26 -123,0 -321,-44 -594,-131l0 -1460z"/>
    <path class="fil1" d="M9724 6301l0 -1946c0,-111 34,-184 102,-219l-545 0c68,27 102,100 102,219l0 1966c0,1971 -4528,1769 -5927,1095 -504,-243 -537,-694 -62,-751 -441,-327 -1193,523 -73,1069 1694,826 6403,814 6403,-1433z"/>
    <path class="fil1" d="M10962 4136l-536 0c-12,-2 -23,-3 -33,-4 -11,-1 -21,-2 -31,-2l-64 0c-111,0 -199,30 -264,91 -65,60 -97,135 -97,224 0,76 27,147 81,213 55,66 124,97 210,93l52 -3 50 -17c15,-2 31,-15 46,-38 -108,-22 -163,-95 -163,-222 0,-54 17,-109 50,-163 41,-48 90,-73 148,-73 94,0 140,40 140,120l-288 1620c-47,163 -118,271 -213,326l466 0c-79,-45 -129,-96 -148,-155 -4,-19 -7,-47 -9,-84 -2,-37 -3,-83 -3,-137l192 -1078c121,0 206,136 257,408l189 1046c37,210 130,315 280,315 66,0 127,-26 183,-76 45,-51 64,-109 59,-175 -22,17 -47,26 -76,26 -51,0 -82,-30 -93,-90l-385 -2165zm-396 606l23 -111c12,-54 18,-87 18,-99l35 -204 23 117c10,54 14,84 14,87 4,22 8,41 12,59 4,17 7,33 9,46l14 105 -148 0z"/>
    <path class="fil1" d="M9556 3575c82,0 149,110 149,245 0,135 -67,245 -149,245 -81,0 -148,-110 -148,-245 0,-135 67,-245 148,-245z"/>
   </g>
   <g>
    <path class="fil2" d="M908 5934l-7 41c-47,163 -118,271 -213,326l466 0c-79,-45 -129,-96 -148,-155 -4,-19 -7,-47 -9,-84 -2,-33 -3,-74 -3,-122 -29,-2 -57,-4 -86,-6zm664 38l60 329c37,210 130,315 280,315 66,0 127,-26 183,-76 45,-51 64,-109 58,-175 -21,17 -46,26 -75,26 -51,0 -82,-30 -93,-90l-57 -318c-119,-3 -237,-7 -356,-11zm934 16c30,-1 60,-1 90,-1l0 2c0,134 49,238 146,312l-385 0c99,-70 149,-174 149,-312l0 -1zm698 -15c113,-5 226,-9 339,-15l125 343c22,60 45,103 70,128 39,68 84,102 134,102l53 0c-10,33 -37,65 -82,96 -37,22 -81,32 -134,32 -159,0 -285,-119 -378,-358l-127 -328zm599 -30c113,-7 227,-15 340,-24l0 163c0,107 34,180 102,219l-544 0c38,-18 69,-66 90,-146 8,-29 12,-53 12,-73l0 -139zm845 -68c28,-3 57,-6 86,-9l-11 59c0,54 1,100 3,137 2,37 5,65 9,84 19,59 69,110 148,155l-466 0c95,-55 166,-163 213,-326l18 -100zm624 -70c115,-14 230,-29 346,-45l96 541c11,60 43,90 93,90 29,0 54,-9 76,-26 6,66 -14,124 -59,175 -56,50 -117,76 -183,76 -150,0 -243,-105 -280,-315l-89 -496zm1022 -148c113,-18 227,-38 340,-58l0 483c0,107 34,180 102,219l-544 0c50,-21 83,-73 99,-155 2,-7 3,-16 3,-26 0,-11 0,-24 0,-38l0 -425zm568 -100c112,-21 223,-43 335,-66l75 382c24,116 41,194 53,233 25,95 54,166 87,212 26,49 60,73 102,73 12,0 29,-9 53,-26 8,68 -13,126 -61,175 -51,50 -110,76 -178,76 -76,0 -144,-35 -204,-105 -53,-59 -89,-129 -111,-210 -15,-68 -34,-153 -55,-255 -22,-102 -46,-223 -73,-363l-23 -126zm1107 -235c114,-26 227,-54 341,-82l0 1160c274,87 472,131 594,131 82,0 147,-9 197,-26 49,-18 84,-59 103,-125 33,56 50,107 50,154 0,72 -26,126 -78,163 -51,37 -115,55 -190,55 -84,0 -222,-42 -414,-128l-291 -131c-65,-27 -146,-41 -245,-41 -41,0 -74,3 -99,9l-35 3 -35 12c31,-12 57,-44 78,-96 16,-47 24,-88 24,-123l0 -935zm646 -160c13,-4 26,-7 38,-10l0 147 -17 0c0,-37 -7,-83 -21,-137z"/>
    <path class="fil2" d="M9724 6301l0 -1458c-113,36 -226,70 -341,104l0 1374c0,1971 -4528,1769 -5927,1095 -504,-243 -537,-694 -62,-751 -441,-327 -1193,523 -73,1069 1694,826 6403,814 6403,-1433z"/>
    <path class="fil2" d="M10097 4723c38,21 82,30 131,28l52 -3 50 -17c15,-2 31,-15 47,-38 -34,-7 -62,-19 -86,-35 -64,22 -129,44 -194,65zm414 -141l-248 1393c-47,163 -118,271 -213,326l466 0c-79,-45 -129,-96 -148,-155 -4,-19 -7,-47 -9,-84 -2,-37 -3,-83 -3,-137l192 -1078c121,0 206,136 257,408l189 1046c37,210 130,315 280,315 66,0 127,-26 183,-76 45,-51 65,-109 59,-175 -22,17 -47,26 -76,26 -51,0 -82,-30 -93,-90l-338 -1901c-109,41 -220,82 -331,122 1,6 2,9 2,10 3,22 7,41 11,59 4,17 7,33 9,46l14 105 -148 0 23 -111c8,-38 14,-65 16,-83 -31,12 -63,23 -94,34z"/>
   </g>
  </g>
 </g>
</svg>
