<?xml version="1.0" encoding="UTF-8"?>
<!DOCTYPE svg PUBLIC "-//W3C//DTD SVG 1.1//EN" "http://www.w3.org/Graphics/SVG/1.1/DTD/svg11.dtd">
<!-- Creator: CorelDRAW X7 -->
<svg xmlns="http://www.w3.org/2000/svg" xml:space="preserve" width="11.811in" height="11.811in" version="1.1" style="shape-rendering:geometricPrecision; text-rendering:geometricPrecision; image-rendering:optimizeQuality; fill-rule:evenodd; clip-rule:evenodd"
viewBox="0 0 11811 11811"
 xmlns:xlink="http://www.w3.org/1999/xlink">
 <defs>
  <style type="text/css">
   <![CDATA[
    .fil0 {fill:black}
    .fil1 {fill:black}
   ]]>
  </style>
 </defs>
 <g id="Layer_x0020_1">
  <metadata id="CorelCorpID_0Corel-Layer"/>
  <g id="_286842256">
   <path class="fil0" d="M1429 4124l-539 0c-12,-2 -23,-3 -34,-4 -11,-1 -21,-2 -31,-2l-64 0c-112,0 -200,31 -266,91 -65,61 -98,136 -98,226 0,76 27,148 82,214 55,67 125,98 211,94l53 -3 50 -18c16,-1 31,-14 47,-38 -110,-21 -164,-95 -164,-223 0,-54 16,-109 49,-164 41,-49 91,-73 150,-73 94,0 141,40 141,120l-291 1631c-47,164 -118,274 -214,329l470 0c-81,-45 -130,-97 -150,-156 -4,-19 -7,-48 -9,-85 -2,-37 -3,-83 -3,-138l194 -1085c121,0 207,137 258,411l191 1053c37,211 131,316 281,316 67,0 128,-25 185,-76 45,-51 65,-109 59,-176 -22,18 -47,27 -76,27 -51,0 -83,-31 -94,-91l-388 -2180zm-399 610l24 -111c12,-55 18,-88 18,-100l35 -205 23 117c10,55 15,84 15,88 4,22 8,41 12,59 4,17 6,33 8,47l15 105 -150 0zm2740 1801l-52 0c-51,0 -96,-34 -135,-102 -26,-26 -49,-69 -71,-129l-358 -977 0 -889c0,-135 50,-240 150,-314l-387 0c99,74 149,178 149,311l0 648 -352 -959 -498 0c-12,-2 -23,-3 -34,-4 -11,-1 -21,-2 -31,-2l-64 0c-112,0 -200,31 -266,91 -65,61 -98,136 -98,226 0,76 27,148 82,214 55,67 125,98 211,94l53 -3 50 -18c15,-1 31,-14 47,-38 -110,-21 -165,-95 -165,-223 0,-54 17,-109 50,-164 41,-49 91,-73 150,-73 94,0 141,40 141,120l0 1646c0,139 -50,243 -150,314l387 0c-97,-75 -146,-179 -146,-314l0 -1602 739 1916c94,240 221,360 381,360 53,0 98,-10 135,-32 45,-31 73,-63 82,-97zm-924 -2470c258,-66 525,-99 801,-99l0 2118c0,19 -4,44 -12,73 -21,80 -51,129 -91,147l549 0c-68,-40 -103,-113 -103,-220l0 -2112c288,0 555,31 801,93l-141 -181 -1663 0 -141 181zm2338 59l-540 0c-11,-2 -22,-3 -33,-4 -11,-1 -21,-2 -31,-2l-65 0c-111,0 -200,31 -265,91 -66,61 -98,136 -98,226 0,76 27,148 82,214 55,67 125,98 211,94l53 -3 50 -18c15,-1 31,-14 47,-38 -110,-21 -165,-95 -165,-223 0,-54 17,-109 50,-164 41,-49 91,-73 150,-73 94,0 141,40 141,120l-291 1631c-47,164 -118,274 -214,329l469 0c-80,-45 -130,-97 -149,-156 -4,-19 -7,-48 -9,-85 -2,-37 -3,-83 -3,-138l194 -1085c121,0 207,137 258,411l191 1053c37,211 131,316 281,316 67,0 128,-25 185,-76 45,-51 64,-109 59,-176 -22,18 -47,27 -77,27 -51,0 -82,-31 -94,-91l-387 -2180zm-399 610l24 -111c11,-55 17,-88 17,-100l36 -205 23 117c10,55 15,84 15,88 4,22 8,41 11,59 4,17 7,33 9,47l15 105 -150 0zm2095 1570c21,82 58,152 111,211 61,70 129,105 206,105 68,0 128,-25 179,-76 48,-49 69,-107 61,-176 -23,18 -41,27 -53,27 -43,0 -77,-25 -102,-74 -34,-47 -63,-118 -88,-214 -12,-39 -30,-117 -53,-235l-138 -695c-25,-127 -38,-209 -38,-246l3 -165c-96,22 -176,33 -241,33 -17,0 -36,-1 -57,-3 -21,-2 -43,-5 -66,-9 141,-27 265,-75 373,-144 109,-70 164,-165 164,-284 0,-71 -27,-127 -79,-170 -53,-43 -125,-65 -214,-65l-819 0c-12,-2 -23,-3 -34,-4 -10,-1 -21,-2 -30,-2l-65 0c-111,0 -200,31 -265,91 -66,61 -99,136 -99,226 0,76 28,148 82,214 55,67 126,98 212,94l52 -3 50 -18c16,-1 32,-14 47,-38 -109,-21 -164,-95 -164,-223 0,-54 17,-109 50,-164 41,-49 91,-73 149,-73 94,0 141,40 141,120l0 1740c0,13 0,26 0,38 0,10 -1,18 -3,26 -15,82 -49,134 -99,156l548 0c-68,-40 -103,-113 -103,-220l0 -1232c51,7 90,48 118,123 8,17 20,79 38,185l97 522c27,141 52,262 73,365 22,103 40,188 56,257zm-382 -1960c0,-84 39,-126 115,-126 47,0 84,18 111,54 28,36 41,81 41,134 0,68 -20,133 -61,193 -47,71 -102,106 -165,106 -27,-6 -41,-20 -41,-41l0 -320zm1687 590c0,-63 31,-94 94,-94 76,10 137,79 182,208 35,106 53,188 53,247l17 0 0 -555 -346 0 0 -405c0,-66 31,-99 94,-99 131,0 229,54 293,164 53,92 80,207 80,346l14 0 0 -622 -950 0c-12,-2 -23,-3 -34,-4 -11,-1 -21,-2 -31,-2l-64 0c-112,0 -200,31 -266,91 -65,61 -98,136 -98,226 0,76 27,148 82,214 55,67 125,98 211,94l53 -3 50 -18c16,-1 31,-14 47,-38 -110,-21 -164,-95 -164,-223 0,-54 16,-109 50,-164 41,-49 90,-73 149,-73 94,0 141,40 141,120l0 1916c0,35 -8,76 -24,123 -21,53 -47,85 -79,97l35 -12 36 -3c25,-6 58,-9 99,-9 100,0 182,14 247,41l293 132c194,86 333,129 417,129 76,0 140,-18 192,-55 52,-38 78,-92 78,-165 0,-47 -17,-98 -50,-155 -20,66 -55,108 -104,126 -50,18 -116,26 -198,26 -124,0 -323,-44 -599,-132l0 -1469z"/>
   <path class="fil0" d="M9609 6304l0 -1960c0,-111 35,-185 103,-220l-549 0c69,27 103,101 103,220l0 1980c0,1985 -4559,1781 -5968,1102 -507,-245 -540,-698 -62,-756 -444,-329 -1201,526 -73,1076 1705,832 6446,820 6446,-1442z"/>
   <path class="fil0" d="M10856 4124l-540 0c-12,-2 -23,-3 -34,-4 -10,-1 -21,-2 -31,-2l-64 0c-112,0 -200,31 -266,91 -65,61 -98,136 -98,226 0,76 28,148 82,214 55,67 126,98 212,94l52 -3 50 -18c16,-1 32,-14 47,-38 -109,-21 -164,-95 -164,-223 0,-54 17,-109 50,-164 41,-49 91,-73 149,-73 94,0 141,40 141,120l-290 1631c-47,164 -119,274 -214,329l469 0c-80,-45 -130,-97 -150,-156 -4,-19 -6,-48 -8,-85 -2,-37 -3,-83 -3,-138l193 -1085c121,0 208,137 258,411l191 1053c37,211 131,316 282,316 66,0 128,-25 184,-76 45,-51 65,-109 59,-176 -21,18 -47,27 -76,27 -51,0 -82,-31 -94,-91l-387 -2180zm-399 610l23 -111c12,-55 18,-88 18,-100l35 -205 24 117c9,55 14,84 14,88 4,22 8,41 12,59 4,17 7,33 9,47l14 105 -149 0z"/>
   <path class="fil1" d="M9441 3559c82,0 149,110 149,247 0,136 -67,246 -149,246 -83,0 -150,-110 -150,-246 0,-137 67,-247 150,-247z"/>
  </g>
 </g>
</svg>
